#N canvas 0 25 1440 762 10;
#X floatatom 10 -1490 5 0 0 0 - cpu -, f 5;
#X text 10 -1510 % cpu;
#X floatatom 120 -1410 7 0 0 0 - - -, f 7;
#X text 163 -1410 dB;
#X obj 100 -1540 vu 15 120 rgain1 empty 8 -8 0 10 #404040 #000000
1 0;
#N canvas 0 22 473 564 spectrum 0;
#X obj 335 197 rfft~;
#X obj 260 268 tgl 15 0 empty empty empty 17 7 0 10 #fcfcfc #000000
#000000 1 1;
#N canvas 51 367 1153 478 (subpatch) 0;
#X array spectrum2 128 float 5 black black;
#A 0 0 0 0 0 0 0 0 0 0 0 0 0 0 0 0 0 0 0 0 0 0 0 0 0 0 0 0 0 0 0 0
0 0 0 0 0 0 0 0 0 0 0 0 0 0 0 0 0 0 0 0 0 0 0 0 0 0 0 0 0 0 0 0 0 0
0 0 0 0 0 0 0 0 0 0 0 0 0 0 0 0 0 0 0 0 0 0 0 0 0 0 0 0 0 0 0 0 0 0
0 0 0 0 0 0 0 0 0 0 0 0 0 0 0 0 0 0 0 0 0 0 0 0 0 0 0 0 0;
#X coords 0 64 127 1 400 150 1;
#X restore 36 379 graph;
#X obj 335 224 *~;
#X obj 362 224 *~;
#X obj 335 275 biquad~ 0 0 0 0 1;
#X obj 335 253 q8_sqrt~;
#X text 35 531 20Hz;
#X obj 192 238 loadbang;
#X msg 46 90 \; pd dsp 1;
#X obj 310 328 tabwrite~ spectrum2;
#X obj 327 25 inlet~;
#X obj 400 150 *~;
#N canvas 0 22 450 300 (subpatch) 0;
#X array hanning 100 float 3 black black;
#A 0 -1 -0.999995 -0.999991 -0.999986 -0.999981 -0.999977 -0.999972
-0.999967 -0.999962 -0.999948 -0.999934 -0.99992 -0.999906 -0.999892
-0.999878 -0.999864 -0.999849 -0.999826 -0.999802 -0.999779 -0.999755
-0.999732 -0.999708 -0.999685 -0.999661 -0.999628 -0.999595 -0.999562
-0.999529 -0.999497 -0.999464 -0.999431 -0.999398 -0.999355 -0.999313
-0.999271 -0.999228 -0.999186 -0.999144 -0.999101 -0.999059 -0.999007
-0.998956 -0.998904 -0.998852 -0.9988 -0.998749 -0.998697 -0.998645
-0.998584 -0.998523 -0.998462 -0.998401 -0.99834 -0.998278 -0.998217
-0.998156 -0.998086 -0.998015 -0.997945 -0.997874 -0.997804 -0.997733
-0.997663 -0.997592 -0.997512 -0.997433 -0.997353 -0.997273 -0.997193
-0.997113 -0.997033 -0.996953 -0.996864 -0.996775 -0.996686 -0.996597
-0.996507 -0.996418 -0.996329 -0.99624 -0.996141 -0.996043 -0.995944
-0.995846 -0.995747 -0.995648 -0.99555 -0.995451 -0.995343 -0.995236
-0.995128 -0.99502 -0.994912 -0.994804 -0.994696 -0.994588 -0.994471
-0.994354 -0.994237;
#X coords 0 1 100 -1 200 140 1;
#X restore 600 100 graph;
#X obj 580 280 bng 15 250 50 0 empty empty empty 17 7 0 10 #fcfcfc
#000000 #000000;
#X obj 590 320 samplerate~;
#X msg 670 320 0;
#X obj 590 380 osc~;
#X obj 590 420 *~ -0.5;
#X obj 590 445 +~ -0.5;
#X obj 580 480 tabwrite~ hanning;
#X obj 366 121 tabreceive~ hanning;
#X obj 260 290 metro 100;
#X obj 590 350 / 1024;
#X obj 40 30 block~ 256;
#X text 405 530 20KHz;
#X connect 0 0 3 0;
#X connect 0 0 3 1;
#X connect 0 1 4 0;
#X connect 0 1 4 1;
#X connect 1 0 22 0;
#X connect 3 0 6 0;
#X connect 4 0 6 0;
#X connect 5 0 10 0;
#X connect 6 0 5 0;
#X connect 8 0 1 0;
#X connect 8 0 9 0;
#X connect 11 0 0 0;
#X connect 14 0 15 0;
#X connect 14 0 16 0;
#X connect 14 0 20 0;
#X connect 15 0 23 0;
#X connect 16 0 17 1;
#X connect 17 0 18 0;
#X connect 18 0 19 0;
#X connect 19 0 20 0;
#X connect 22 0 10 0;
#X connect 23 0 17 0;
#X coords 0 -1 1 1 447 200 1 25 350;
#X restore 990 -1430 pd spectrum;
#X floatatom 230 -1410 7 0 0 0 - - -, f 7;
#X text 273 -1410 dB, f 4;
#X obj 210 -1540 vu 15 120 sband1mid empty 8 -8 0 10 #404040 #000000
1 0;
#X floatatom 350 -1410 7 0 0 0 - - -, f 7;
#X text 393 -1410 dB, f 4;
#X obj 327 -1540 vu 15 120 rgain1 empty 8 -8 0 10 #404040 #000000
1 0;
#X floatatom 460 -1410 7 0 0 0 - - -, f 7;
#X text 503 -1410 dB, f 4;
#X obj 440 -1540 vu 15 120 rgain1 empty 8 -8 0 10 #404040 #000000
1 0;
#X obj 210 -1570 r band1mid;
#X obj 100 -1570 r band1low;
#X obj 327 -1570 r band1high;
#X obj 440 -1570 r band1vhigh;
#X floatatom 570 -1410 7 0 0 0 - - -, f 7;
#X text 613 -1410 dB, f 4;
#X obj 551 -1540 vu 15 120 rgain1 empty 8 -8 0 10 #404040 #000000
1 0;
#X floatatom 680 -1410 7 0 0 0 - - -, f 7;
#X text 725 -1410 dB, f 4;
#X obj 661 -1540 vu 15 120 sband1mid empty 8 -8 0 10 #404040 #000000
1 0;
#X floatatom 790 -1410 7 0 0 0 - - -, f 7;
#X text 833 -1410 dB, f 4;
#X obj 770 -1540 vu 15 120 rgain1 empty 8 -8 0 10 #404040 #000000
1 0;
#X floatatom 900 -1410 7 0 0 0 - - -, f 7;
#X text 943 -1410 dB, f 4;
#X obj 880 -1540 vu 15 120 rgain1 empty 8 -8 0 10 #404040 #000000
1 0;
#X obj 989 -1500 r~ spec;
#X obj 1039 -1500 r~ spec1;
#X obj 1099 -1500 r~ spec2;
#X obj 1159 -1500 r~ spec3;
#X obj 1219 -1500 r~ spec4;
#X obj 1279 -1500 r~ spec5;
#X obj 1339 -1500 r~ spec6;
#X obj 1400 -1500 r~ spec7;
#X obj 1460 -1500 r~ spec8;
#X obj 990 -1540 r~ spec9;
#X obj 1050 -1540 r~ spec10;
#X obj 1120 -1540 r~ spec11;
#X obj 1190 -1540 r~ spec11;
#X obj 1260 -1540 r~ spec12;
#X obj 1330 -1540 r~ spec13;
#X obj 1400 -1540 r~ spec14;
#X obj 1470 -1540 r~ spec15;
#X floatatom 120 -1220 7 0 0 0 - - -, f 7;
#X text 163 -1220 dB, f 4;
#X obj 100 -1350 vu 15 120 rgain1 empty 8 -8 0 10 #404040 #000000
1 0;
#X floatatom 230 -1220 7 0 0 0 - - -, f 7;
#X text 273 -1220 dB, f 4;
#X obj 209 -1350 vu 15 120 sband1mid empty 8 -8 0 10 #404040 #000000
1 0;
#X floatatom 350 -1220 7 0 0 0 - - -, f 7;
#X text 393 -1220 dB, f 4;
#X obj 327 -1350 vu 15 120 rgain1 empty 8 -8 0 10 #404040 #000000
1 0;
#X floatatom 460 -1220 7 0 0 0 - - -, f 7;
#X text 503 -1220 dB, f 4;
#X obj 440 -1350 vu 15 120 rgain1 empty 8 -8 0 10 #404040 #000000
1 0;
#X floatatom 570 -1220 7 0 0 0 - - -, f 7;
#X text 613 -1220 dB, f 4;
#X obj 550 -1350 vu 15 120 rgain1 empty 8 -8 0 10 #404040 #000000
1 0;
#X floatatom 680 -1220 7 0 0 0 - - -, f 7;
#X text 723 -1220 dB, f 4;
#X obj 660 -1350 vu 15 120 sband1mid empty 8 -8 0 10 #404040 #000000
1 0;
#X floatatom 790 -1220 7 0 0 0 - - -, f 7;
#X text 835 -1220 dB, f 4;
#X obj 770 -1350 vu 15 120 rgain1 empty 8 -8 0 10 #404040 #000000
1 0;
#X floatatom 900 -1220 7 0 0 0 - - -, f 7;
#X text 943 -1220 dB, f 4;
#X obj 880 -1350 vu 15 120 rgain1 empty 8 -8 0 10 #404040 #000000
1 0;
#X obj 551 -1570 r band2low;
#X obj 661 -1570 r band2mid;
#X obj 770 -1570 r band2high;
#X obj 880 -1570 r band2vhigh;
#X obj 100 -1380 r band3low;
#X obj 209 -1380 r band3mid;
#X obj 327 -1380 r band3high;
#X obj 440 -1380 r band3vhigh;
#X obj 550 -1380 r band4low;
#X obj 660 -1380 r band4mid;
#X obj 770 -1380 r band4high;
#X obj 880 -1380 r band4vhigh;
#X floatatom 143 -1529 5 0 0 0 - f1 -, f 5;
#X floatatom 143 -1499 5 0 0 0 - q1 -, f 5;
#X floatatom 143 -1439 5 0 0 0 - i1 -, f 5;
#X floatatom 143 -1469 5 0 0 0 - g1 -, f 5;
#N canvas 253 73 1187 714 main 1;
#X floatatom 261 -2795 5 0 0 0 - - -, f 5;
#X obj 261 -2815 ctlin 2 1;
#X obj 261 -2695 / 127;
#X obj 428 -2815 ctlin 3 1;
#X floatatom 261 -2665 5 0 0 0 - - f1, f 5;
#X obj 332 -2755 tgl 16 1 band1 empty empty 17 7 0 10 #fcfcfc #000000
#000000 0 127;
#X obj 342 -2815 ctlin 85 1;
#X obj 261 -2755 *;
#X obj 261 -2725 * 20;
#X obj 372 -2755 tgl 16 1 empty empty empty 17 7 0 10 #fcfcfc #000000
#000000 0 127;
#X obj 428 -2755 *;
#X obj 508 -2815 ctlin 4 1;
#X floatatom 508 -2665 5 0 0 0 - - g1, f 5;
#X obj 163 -2785 tgl 55 0 eq1 empty empty 17 7 0 10 #fcfcfc #000000
#000000 0 127;
#X obj 260 -2466 dac~;
#X obj 163 -2815 ctlin 88 1;
#X obj 148 -2715 *~;
#X obj 260 -2526 gainvu~;
#X msg 78 -2645 set 0 0;
#X text 51 -2665 set internal state;
#X obj 390 -2546 init 60;
#X text 290 -2556 Master Level;
#X floatatom 428 -2695 5 0 0 0 - - q1, f 5;
#X obj 508 -2695 - 39.5;
#X floatatom 588 -2665 5 0 0 0 - - i1, f 5;
#X obj 588 -2695 -27;
#X obj 468 -2755 tgl 16 1 empty empty empty 17 7 0 10 #fcfcfc #000000
#000000 0 127;
#X obj 548 -2755 tgl 16 1 empty empty empty 17 7 0 10 #fcfcfc #000000
#000000 0 127;
#X obj 508 -2755 *;
#X obj 588 -2755 *;
#X text 268 -2605 Input \, centre frequency \, Q (slope) \, gain (dB)
\, interpolation time (ms), f 73;
#X text 261 -2835 Freqeuncy;
#X text 342 -2855 20Hz-2.5kHz;
#X text 342 -2835 Band On/Off;
#X text 261 -2855 Centre;
#X text 428 -2835 Q (Slope);
#X text 508 -2835 Gain;
#X text 588 -2835 Interpolation;
#X text 20 -2790 Audio input;
#X text 158 -2835 EQ 1 On/off;
#X obj 588 -2815 ctlin 5 1;
#X obj 508 -2725 / 256;
#X obj 588 -2725 / 12.7;
#X obj -109 -1964 f;
#X obj -40 -1960 samplerate~;
#X obj -135 -2139 tabread spectrum2;
#X obj -134 -2183 until;
#X obj -128 -2014 t f b b;
#X obj -81 -1964 + 1;
#X obj -108 -1839 pack f f;
#X obj -63 -1866 f;
#X obj -108 -1910 t f b;
#X obj -108 -1814 print;
#X msg -134 -2238 256;
#X obj -134 -2160 f;
#X obj -106 -2160 + 1;
#X obj -134 -2215 t f b;
#X msg -50 -2201 0;
#X obj -44 -2085 sel 1;
#X obj -128 -2037 f;
#X obj 0 -2110 hsl 128 15 0 127 0 0 empty empty empty -2 -8 0 10 #fcfcfc
#000000 #000000 0 1;
#X floatatom 1 -2084 5 0 0 0 - - -, f 5;
#X obj -44 -2109 > 50;
#X floatatom 918 -2795 5 0 0 0 - - -, f 5;
#X obj 918 -2815 ctlin 2 1;
#X obj 918 -2705 / 127;
#X obj 1087 -2813 ctlin 3 1;
#X floatatom 918 -2655 5 0 0 0 - - f2, f 5;
#X obj 991 -2753 tgl 16 1 band2 empty empty 17 7 0 10 #fcfcfc #000000
#000000 0 127;
#X obj 918 -2765 *;
#X obj 1031 -2753 tgl 16 1 empty empty empty 17 7 0 10 #fcfcfc #000000
#000000 0 127;
#X obj 1087 -2753 *;
#X obj 1167 -2813 ctlin 4 1;
#X floatatom 1167 -2663 5 0 0 0 - - g2, f 5;
#X obj 822 -2783 tgl 55 0 empty empty empty 17 7 0 10 #fcfcfc #000000
#000000 0 127;
#X obj 822 -2813 ctlin 88 1;
#X obj 807 -2713 *~;
#X msg 737 -2643 set 0 0;
#X text 710 -2663 set internal state;
#X floatatom 1087 -2693 5 0 0 0 - - q2, f 5;
#X obj 1167 -2693 - 39.5;
#X floatatom 1247 -2663 5 0 0 0 - - i2, f 5;
#X obj 1247 -2693 -27;
#X obj 1127 -2753 tgl 16 1 empty empty empty 17 7 0 10 #fcfcfc #000000
#000000 0 127;
#X obj 1207 -2753 tgl 16 1 empty empty empty 17 7 0 10 #fcfcfc #000000
#000000 0 127;
#X obj 1167 -2753 *;
#X obj 1247 -2753 *;
#X text 927 -2603 Input \, centre frequency \, Q (slope) \, gain (dB)
\, interpolation time (ms), f 73;
#X text 918 -2835 Freqeuncy;
#X text 1001 -2833 Band On/Off;
#X text 918 -2855 Centre;
#X text 1087 -2833 Q (Slope);
#X text 1167 -2833 Gain;
#X text 1247 -2833 Interpolation;
#X text 720 -2836 Audio input;
#X text 817 -2833 EQ 1 On/off;
#X obj 1247 -2813 ctlin 5 1;
#X obj 1167 -2723 / 256;
#X obj 1247 -2723 / 12.7;
#X obj 1001 -2813 ctlin 105 1;
#X obj 918 -2679 + 2540;
#X obj 918 -2735 * 30;
#X obj 923 -2471 dac~;
#X obj 923 -2531 gainvu~;
#X obj 983 -2531 init 60;
#X text 953 -2561 Master Level;
#X floatatom 1580 -2788 5 0 0 0 - - -, f 5;
#X obj 1580 -2808 ctlin 2 1;
#X obj 1578 -2715 / 127;
#X obj 1747 -2808 ctlin 3 1;
#X floatatom 1580 -2658 5 0 0 0 - - f3, f 5;
#X obj 1651 -2748 tgl 16 1 band3 empty empty 17 7 0 10 #fcfcfc #000000
#000000 0 127;
#X obj 1579 -2765 *;
#X obj 1691 -2748 tgl 16 1 empty empty empty 17 7 0 10 #fcfcfc #000000
#000000 0 127;
#X obj 1747 -2748 *;
#X obj 1827 -2808 ctlin 4 1;
#X floatatom 1827 -2658 5 0 0 0 - - g3, f 5;
#X obj 1482 -2778 tgl 55 0 empty empty empty 17 7 0 10 #fcfcfc #000000
#000000 0 127;
#X obj 1617 -2458 dac~;
#X obj 1482 -2808 ctlin 88 1;
#X obj 1467 -2708 *~;
#X obj 1617 -2518 gainvu~;
#X msg 1397 -2638 set 0 0;
#X text 1370 -2658 set internal state;
#X obj 1677 -2518 init 60;
#X text 1647 -2548 Master Level;
#X floatatom 1747 -2688 5 0 0 0 - - q3, f 5;
#X obj 1827 -2688 - 39.5;
#X floatatom 1907 -2658 5 0 0 0 - - i3, f 5;
#X obj 1907 -2688 -27;
#X obj 1787 -2748 tgl 16 1 empty empty empty 17 7 0 10 #fcfcfc #000000
#000000 0 127;
#X obj 1867 -2748 tgl 16 1 empty empty empty 17 7 0 10 #fcfcfc #000000
#000000 0 127;
#X obj 1827 -2748 *;
#X obj 1907 -2748 *;
#X text 1587 -2598 Input \, centre frequency \, Q (slope) \, gain (dB)
\, interpolation time (ms), f 73;
#X text 1580 -2828 Freqeuncy;
#X text 1661 -2828 Band On/Off;
#X text 1580 -2848 Centre;
#X text 1747 -2828 Q (Slope);
#X text 1827 -2828 Gain;
#X text 1907 -2828 Interpolation;
#X text 1390 -2826 Audio input;
#X text 1477 -2828 EQ 1 On/off;
#X obj 1907 -2808 ctlin 5 1;
#X obj 1827 -2718 / 256;
#X obj 1907 -2718 / 12.7;
#X floatatom 2237 -2788 5 0 0 0 - - -, f 5;
#X obj 2237 -2808 ctlin 2 1;
#X obj 2237 -2698 / 127;
#X obj 2406 -2806 ctlin 3 1;
#X floatatom 2237 -2648 5 0 0 0 - - f4, f 5;
#X obj 2310 -2746 tgl 16 1 band4 empty empty 17 7 0 10 #fcfcfc #000000
#000000 0 127;
#X obj 2237 -2758 *;
#X obj 2350 -2746 tgl 16 1 empty empty empty 17 7 0 10 #fcfcfc #000000
#000000 0 127;
#X obj 2406 -2746 *;
#X obj 2486 -2806 ctlin 4 1;
#X floatatom 2486 -2656 5 0 0 0 - - g4, f 5;
#X obj 2140 -2776 tgl 55 0 empty empty empty 17 7 0 10 #fcfcfc #000000
#000000 0 127;
#X obj 2141 -2806 ctlin 88 1;
#X obj 2126 -2706 *~;
#X msg 2056 -2636 set 0 0;
#X text 2029 -2656 set internal state;
#X floatatom 2406 -2686 5 0 0 0 - - q4, f 5;
#X obj 2486 -2686 - 39.5;
#X floatatom 2566 -2656 5 0 0 0 - - i4, f 5;
#X obj 2566 -2686 -27;
#X obj 2446 -2746 tgl 16 1 empty empty empty 17 7 0 10 #fcfcfc #000000
#000000 0 127;
#X obj 2526 -2746 tgl 16 1 empty empty empty 17 7 0 10 #fcfcfc #000000
#000000 0 127;
#X obj 2486 -2746 *;
#X obj 2566 -2746 *;
#X text 2246 -2596 Input \, centre frequency \, Q (slope) \, gain (dB)
\, interpolation time (ms), f 73;
#X text 2237 -2828 Freqeuncy;
#X text 2320 -2826 Band On/Off;
#X text 2237 -2848 Centre;
#X text 2406 -2826 Q (Slope);
#X text 2486 -2826 Gain;
#X text 2566 -2826 Interpolation;
#X text 2040 -2816 Audio input;
#X text 2136 -2826 EQ 1 On/off;
#X obj 2566 -2806 ctlin 5 1;
#X obj 2486 -2716 / 256;
#X obj 2566 -2716 / 12.7;
#X obj 2242 -2464 dac~;
#X obj 2242 -2524 gainvu~;
#X obj 2302 -2524 init 60;
#X text 2272 -2554 Master Level;
#X text 1001 -2853 2.5kHz-6.3kHz;
#X obj 1658 -2805 ctlin 86 1;
#X obj 2320 -2806 ctlin 87 1;
#X text 1661 -2848 6.3kHz- 11.4kHz;
#X text 2320 -2846 11.4KHz- 19kHz;
#X obj 2237 -2672 + 11430;
#X obj 2237 -2728 * 60;
#X obj 1578 -2685 + 6350;
#X obj 1578 -2745 * 40;
#X floatatom 274 -2323 5 0 0 0 - - -, f 5;
#X obj 274 -2343 ctlin 2 1;
#X obj 274 -2223 / 127;
#X obj 441 -2343 ctlin 3 1;
#X floatatom 274 -2193 5 0 0 0 - - f5, f 5;
#X obj 345 -2283 tgl 16 1 band5 empty empty 17 7 0 10 #fcfcfc #000000
#000000 0 127;
#X obj 355 -2343 ctlin 85 1;
#X obj 274 -2283 *;
#X obj 274 -2253 * 20;
#X obj 385 -2283 tgl 16 1 empty empty empty 17 7 0 10 #fcfcfc #000000
#000000 0 127;
#X obj 441 -2283 *;
#X obj 521 -2343 ctlin 4 1;
#X floatatom 521 -2193 5 0 0 0 - - g5, f 5;
#X obj 176 -2313 tgl 55 0 eq2 empty empty 17 7 0 10 #fcfcfc #000000
#000000 0 127;
#X obj 311 -1993 dac~;
#X obj 161 -2243 *~;
#X obj 311 -2053 gainvu~;
#X msg 91 -2173 set 0 0;
#X text 64 -2193 set internal state;
#X obj 371 -2053 init 60;
#X text 341 -2083 Master Level;
#X floatatom 441 -2223 5 0 0 0 - - q5, f 5;
#X obj 521 -2223 - 39.5;
#X floatatom 601 -2193 5 0 0 0 - - i5, f 5;
#X obj 601 -2223 -27;
#X obj 481 -2283 tgl 16 1 empty empty empty 17 7 0 10 #fcfcfc #000000
#000000 0 127;
#X obj 561 -2283 tgl 16 1 empty empty empty 17 7 0 10 #fcfcfc #000000
#000000 0 127;
#X obj 521 -2283 *;
#X obj 601 -2283 *;
#X text 281 -2133 Input \, centre frequency \, Q (slope) \, gain (dB)
\, interpolation time (ms), f 73;
#X text 274 -2363 Freqeuncy;
#X text 355 -2383 20Hz-2.5kHz;
#X text 355 -2363 Band On/Off;
#X text 274 -2383 Centre;
#X text 441 -2363 Q (Slope);
#X text 521 -2363 Gain;
#X text 601 -2363 Interpolation;
#X text 90 -2346 Audio input;
#X obj 601 -2343 ctlin 5 1;
#X obj 521 -2253 / 256;
#X obj 601 -2253 / 12.7;
#X floatatom 931 -2323 5 0 0 0 - - -, f 5;
#X obj 931 -2343 ctlin 2 1;
#X obj 931 -2233 / 127;
#X obj 1100 -2341 ctlin 3 1;
#X floatatom 931 -2183 5 0 0 0 - - f6, f 5;
#X obj 1004 -2281 tgl 16 1 band6 empty empty 17 7 0 10 #fcfcfc #000000
#000000 0 127;
#X obj 931 -2293 *;
#X obj 1044 -2281 tgl 16 1 empty empty empty 17 7 0 10 #fcfcfc #000000
#000000 0 127;
#X obj 1100 -2281 *;
#X obj 1180 -2341 ctlin 4 1;
#X floatatom 1180 -2191 5 0 0 0 - - g6, f 5;
#X obj 835 -2311 tgl 55 0 empty empty empty 17 7 0 10 #fcfcfc #000000
#000000 0 127;
#X obj 820 -2241 *~;
#X msg 750 -2171 set 0 0;
#X text 723 -2191 set internal state;
#X floatatom 1100 -2221 5 0 0 0 - - q6, f 5;
#X obj 1180 -2221 - 39.5;
#X floatatom 1260 -2191 5 0 0 0 - - i6, f 5;
#X obj 1260 -2221 -27;
#X obj 1140 -2281 tgl 16 1 empty empty empty 17 7 0 10 #fcfcfc #000000
#000000 0 127;
#X obj 1220 -2281 tgl 16 1 empty empty empty 17 7 0 10 #fcfcfc #000000
#000000 0 127;
#X obj 1180 -2281 *;
#X obj 1260 -2281 *;
#X text 940 -2131 Input \, centre frequency \, Q (slope) \, gain (dB)
\, interpolation time (ms), f 73;
#X text 931 -2363 Freqeuncy;
#X text 1014 -2361 Band On/Off;
#X text 931 -2383 Centre;
#X text 1100 -2361 Q (Slope);
#X text 1180 -2361 Gain;
#X text 1260 -2361 Interpolation;
#X text 730 -2346 Audio input;
#X obj 1260 -2341 ctlin 5 1;
#X obj 1180 -2251 / 256;
#X obj 1260 -2251 / 12.7;
#X obj 1014 -2341 ctlin 105 1;
#X obj 931 -2207 + 2540;
#X obj 931 -2263 * 30;
#X obj 936 -1999 dac~;
#X obj 936 -2059 gainvu~;
#X obj 1080 -2076 init 60;
#X text 1050 -2106 Master Level;
#X floatatom 1593 -2316 5 0 0 0 - - -, f 5;
#X obj 1593 -2336 ctlin 2 1;
#X obj 1591 -2243 / 127;
#X obj 1760 -2336 ctlin 3 1;
#X floatatom 1593 -2186 5 0 0 0 - - f7, f 5;
#X obj 1664 -2276 tgl 16 1 band7 empty empty 17 7 0 10 #fcfcfc #000000
#000000 0 127;
#X obj 1592 -2293 *;
#X obj 1704 -2276 tgl 16 1 empty empty empty 17 7 0 10 #fcfcfc #000000
#000000 0 127;
#X obj 1760 -2276 *;
#X obj 1840 -2336 ctlin 4 1;
#X floatatom 1840 -2186 5 0 0 0 - - g7, f 5;
#X obj 1495 -2306 tgl 55 0 empty empty empty 17 7 0 10 #fcfcfc #000000
#000000 0 127;
#X obj 1630 -1986 dac~;
#X obj 1480 -2236 *~;
#X obj 1630 -2046 gainvu~;
#X msg 1410 -2166 set 0 0;
#X text 1383 -2186 set internal state;
#X obj 1630 -2096 init 60;
#X text 1660 -2076 Master Level;
#X floatatom 1760 -2216 5 0 0 0 - - q7, f 5;
#X obj 1840 -2216 - 39.5;
#X floatatom 1920 -2186 5 0 0 0 - - i7, f 5;
#X obj 1920 -2216 -27;
#X obj 1800 -2276 tgl 16 1 empty empty empty 17 7 0 10 #fcfcfc #000000
#000000 0 127;
#X obj 1880 -2276 tgl 16 1 empty empty empty 17 7 0 10 #fcfcfc #000000
#000000 0 127;
#X obj 1840 -2276 *;
#X obj 1920 -2276 *;
#X text 1600 -2126 Input \, centre frequency \, Q (slope) \, gain (dB)
\, interpolation time (ms), f 73;
#X text 1593 -2356 Freqeuncy;
#X text 1674 -2356 Band On/Off;
#X text 1593 -2376 Centre;
#X text 1760 -2356 Q (Slope);
#X text 1840 -2356 Gain;
#X text 1920 -2356 Interpolation;
#X text 1400 -2336 Audio input;
#X obj 1920 -2336 ctlin 5 1;
#X obj 1840 -2246 / 256;
#X obj 1920 -2246 / 12.7;
#X floatatom 2250 -2316 5 0 0 0 - - -, f 5;
#X obj 2250 -2336 ctlin 2 1;
#X obj 2250 -2226 / 127;
#X obj 2419 -2334 ctlin 3 1;
#X floatatom 2250 -2176 5 0 0 0 - - f8, f 5;
#X obj 2323 -2274 tgl 16 1 band8 empty empty 17 7 0 10 #fcfcfc #000000
#000000 0 127;
#X obj 2250 -2286 *;
#X obj 2363 -2274 tgl 16 1 empty empty empty 17 7 0 10 #fcfcfc #000000
#000000 0 127;
#X obj 2419 -2274 *;
#X obj 2499 -2334 ctlin 4 1;
#X floatatom 2499 -2184 5 0 0 0 - - g8, f 5;
#X obj 2154 -2304 tgl 55 0 empty empty empty 17 7 0 10 #fcfcfc #000000
#000000 0 127;
#X obj 2139 -2234 *~;
#X msg 2069 -2164 set 0 0;
#X text 2042 -2184 set internal state;
#X floatatom 2419 -2214 5 0 0 0 - - q8, f 5;
#X obj 2499 -2214 - 39.5;
#X floatatom 2566 -1939 5 0 0 0 - - i8, f 5;
#X obj 2566 -1969 -27;
#X obj 2459 -2274 tgl 16 1 empty empty empty 17 7 0 10 #fcfcfc #000000
#000000 0 127;
#X obj 2539 -2274 tgl 16 1 empty empty empty 17 7 0 10 #fcfcfc #000000
#000000 0 127;
#X obj 2499 -2274 *;
#X obj 2566 -2029 *;
#X text 2259 -2124 Input \, centre frequency \, Q (slope) \, gain (dB)
\, interpolation time (ms), f 73;
#X text 2250 -2356 Freqeuncy;
#X text 2333 -2354 Band On/Off;
#X text 2250 -2376 Centre;
#X text 2419 -2354 Q (Slope);
#X text 2499 -2354 Gain;
#X text 2566 -2109 Interpolation;
#X text 2070 -2336 Audio input;
#X obj 2566 -2089 ctlin 5 1;
#X obj 2499 -2244 / 256;
#X obj 2566 -1999 / 12.7;
#X obj 2255 -1992 dac~;
#X obj 2255 -2052 gainvu~;
#X obj 2315 -2052 init 60;
#X text 2285 -2082 Master Level;
#X text 1014 -2381 2.5kHz-6.3kHz;
#X obj 1671 -2333 ctlin 86 1;
#X obj 2333 -2334 ctlin 87 1;
#X text 1674 -2376 6.3kHz- 11.4kHz;
#X text 2333 -2374 11.4KHz- 19kHz;
#X obj 2250 -2200 + 11430;
#X obj 2250 -2256 * 60;
#X obj 1591 -2213 + 6350;
#X obj 1591 -2273 * 40;
#X floatatom 250 -1765 5 0 0 0 - - -, f 5;
#X obj 250 -1785 ctlin 2 1;
#X obj 250 -1665 / 127;
#X obj 417 -1785 ctlin 3 1;
#X floatatom 250 -1635 5 0 0 0 - - f9, f 5;
#X obj 321 -1725 tgl 16 1 band9 empty empty 17 7 0 10 #fcfcfc #000000
#000000 0 127;
#X obj 331 -1785 ctlin 85 1;
#X obj 250 -1725 *;
#X obj 250 -1695 * 20;
#X obj 361 -1725 tgl 16 1 empty empty empty 17 7 0 10 #fcfcfc #000000
#000000 0 127;
#X obj 417 -1725 *;
#X obj 497 -1785 ctlin 4 1;
#X floatatom 497 -1635 5 0 0 0 - - g9, f 5;
#X obj 152 -1755 tgl 55 0 eq3 empty empty 17 7 0 10 #fcfcfc #000000
#000000 0 127;
#X obj 287 -1435 dac~;
#X obj 137 -1685 *~;
#X obj 287 -1495 gainvu~;
#X msg 67 -1615 set 0 0;
#X text 40 -1635 set internal state;
#X obj 347 -1495 init 60;
#X text 317 -1525 Master Level;
#X floatatom 417 -1665 5 0 0 0 - - q9, f 5;
#X obj 497 -1665 - 39.5;
#X floatatom 577 -1635 5 0 0 0 - - i9, f 5;
#X obj 577 -1665 -27;
#X obj 457 -1725 tgl 16 1 empty empty empty 17 7 0 10 #fcfcfc #000000
#000000 0 127;
#X obj 537 -1725 tgl 16 1 empty empty empty 17 7 0 10 #fcfcfc #000000
#000000 0 127;
#X obj 497 -1725 *;
#X obj 577 -1725 *;
#X text 257 -1575 Input \, centre frequency \, Q (slope) \, gain (dB)
\, interpolation time (ms), f 73;
#X text 250 -1805 Freqeuncy;
#X text 331 -1825 20Hz-2.5kHz;
#X text 331 -1805 Band On/Off;
#X text 250 -1825 Centre;
#X text 417 -1805 Q (Slope);
#X text 497 -1805 Gain;
#X text 577 -1805 Interpolation;
#X text 70 -1796 Audio input;
#X obj 577 -1785 ctlin 5 1;
#X obj 497 -1695 / 256;
#X obj 577 -1695 / 12.7;
#X floatatom 907 -1765 5 0 0 0 - - -, f 5;
#X obj 907 -1785 ctlin 2 1;
#X obj 907 -1675 / 127;
#X obj 1076 -1783 ctlin 3 1;
#X floatatom 907 -1625 5 0 0 0 - - f10, f 5;
#X obj 980 -1723 tgl 16 1 band10 empty empty 17 7 0 10 #fcfcfc #000000
#000000 0 127;
#X obj 907 -1735 *;
#X obj 1020 -1723 tgl 16 1 empty empty empty 17 7 0 10 #fcfcfc #000000
#000000 0 127;
#X obj 1076 -1723 *;
#X obj 1156 -1783 ctlin 4 1;
#X floatatom 1156 -1633 5 0 0 0 - - g10, f 5;
#X obj 811 -1753 tgl 55 0 empty empty empty 17 7 0 10 #fcfcfc #000000
#000000 0 127;
#X obj 796 -1683 *~;
#X msg 726 -1613 set 0 0;
#X text 699 -1633 set internal state;
#X floatatom 1076 -1663 5 0 0 0 - - q10, f 5;
#X obj 1156 -1663 - 39.5;
#X floatatom 1236 -1633 5 0 0 0 - - i10, f 5;
#X obj 1236 -1663 -27;
#X obj 1116 -1723 tgl 16 1 empty empty empty 17 7 0 10 #fcfcfc #000000
#000000 0 127;
#X obj 1196 -1723 tgl 16 1 empty empty empty 17 7 0 10 #fcfcfc #000000
#000000 0 127;
#X obj 1156 -1723 *;
#X obj 1236 -1723 *;
#X text 916 -1573 Input \, centre frequency \, Q (slope) \, gain (dB)
\, interpolation time (ms), f 73;
#X text 907 -1805 Freqeuncy;
#X text 990 -1803 Band On/Off;
#X text 907 -1825 Centre;
#X text 1076 -1803 Q (Slope);
#X text 1156 -1803 Gain;
#X text 1236 -1803 Interpolation;
#X text 710 -1786 Audio input;
#X obj 1236 -1783 ctlin 5 1;
#X obj 1156 -1693 / 256;
#X obj 1236 -1693 / 12.7;
#X obj 990 -1783 ctlin 105 1;
#X obj 907 -1649 + 2540;
#X obj 907 -1705 * 30;
#X obj 912 -1441 dac~;
#X obj 912 -1501 gainvu~;
#X obj 972 -1501 init 60;
#X text 942 -1531 Master Level;
#X floatatom 1569 -1758 5 0 0 0 - - -, f 5;
#X obj 1569 -1778 ctlin 2 1;
#X obj 1567 -1685 / 127;
#X obj 1736 -1778 ctlin 3 1;
#X floatatom 1569 -1628 5 0 0 0 - - f11, f 5;
#X obj 1640 -1718 tgl 16 1 band11 empty empty 17 7 0 10 #fcfcfc #000000
#000000 0 127;
#X obj 1568 -1735 *;
#X obj 1680 -1718 tgl 16 1 empty empty empty 17 7 0 10 #fcfcfc #000000
#000000 0 127;
#X obj 1736 -1718 *;
#X obj 1816 -1778 ctlin 4 1;
#X floatatom 1816 -1628 5 0 0 0 - - g11, f 5;
#X obj 1471 -1748 tgl 55 0 empty empty empty 17 7 0 10 #fcfcfc #000000
#000000 0 127;
#X obj 1606 -1428 dac~;
#X obj 1456 -1678 *~;
#X obj 1606 -1488 gainvu~;
#X msg 1386 -1608 set 0 0;
#X text 1359 -1628 set internal state;
#X obj 1666 -1488 init 60;
#X text 1636 -1518 Master Level;
#X floatatom 1736 -1658 5 0 0 0 - - q11, f 5;
#X obj 1816 -1658 - 39.5;
#X floatatom 1896 -1628 5 0 0 0 - - i11, f 5;
#X obj 1896 -1658 -27;
#X obj 1776 -1718 tgl 16 1 empty empty empty 17 7 0 10 #fcfcfc #000000
#000000 0 127;
#X obj 1856 -1718 tgl 16 1 empty empty empty 17 7 0 10 #fcfcfc #000000
#000000 0 127;
#X obj 1816 -1718 *;
#X obj 1896 -1718 *;
#X text 1576 -1568 Input \, centre frequency \, Q (slope) \, gain (dB)
\, interpolation time (ms), f 73;
#X text 1569 -1798 Freqeuncy;
#X text 1650 -1798 Band On/Off;
#X text 1569 -1818 Centre;
#X text 1736 -1798 Q (Slope);
#X text 1816 -1798 Gain;
#X text 1896 -1798 Interpolation;
#X text 1380 -1786 Audio input;
#X obj 1896 -1778 ctlin 5 1;
#X obj 1816 -1688 / 256;
#X obj 1896 -1688 / 12.7;
#X floatatom 2226 -1758 5 0 0 0 - - -, f 5;
#X obj 2226 -1778 ctlin 2 1;
#X obj 2226 -1668 / 127;
#X obj 2395 -1776 ctlin 3 1;
#X floatatom 2226 -1618 5 0 0 0 - - f12, f 5;
#X obj 2299 -1716 tgl 16 1 band12 empty empty 17 7 0 10 #fcfcfc #000000
#000000 0 127;
#X obj 2226 -1728 *;
#X obj 2339 -1716 tgl 16 1 empty empty empty 17 7 0 10 #fcfcfc #000000
#000000 0 127;
#X obj 2395 -1716 *;
#X obj 2475 -1776 ctlin 4 1;
#X floatatom 2475 -1626 5 0 0 0 - - g12, f 5;
#X obj 2130 -1746 tgl 55 0 empty empty empty 17 7 0 10 #fcfcfc #000000
#000000 0 127;
#X obj 2115 -1676 *~;
#X msg 2045 -1606 set 0 0;
#X text 2018 -1626 set internal state;
#X floatatom 2395 -1656 5 0 0 0 - - q12, f 5;
#X obj 2475 -1656 - 39.5;
#X floatatom 2555 -1626 5 0 0 0 - - i12, f 5;
#X obj 2555 -1656 -27;
#X obj 2435 -1716 tgl 16 1 empty empty empty 17 7 0 10 #fcfcfc #000000
#000000 0 127;
#X obj 2515 -1716 tgl 16 1 empty empty empty 17 7 0 10 #fcfcfc #000000
#000000 0 127;
#X obj 2475 -1716 *;
#X obj 2555 -1716 *;
#X text 2235 -1566 Input \, centre frequency \, Q (slope) \, gain (dB)
\, interpolation time (ms), f 73;
#X text 2226 -1798 Freqeuncy;
#X text 2309 -1796 Band On/Off;
#X text 2226 -1818 Centre;
#X text 2396 -1798 Q (Slope);
#X text 2475 -1796 Gain;
#X text 2555 -1796 Interpolation;
#X text 2040 -1786 Audio input;
#X obj 2555 -1776 ctlin 5 1;
#X obj 2475 -1686 / 256;
#X obj 2555 -1686 / 12.7;
#X obj 2231 -1434 dac~;
#X obj 2231 -1494 gainvu~, f 8;
#X obj 2350 -1516 init 60;
#X text 2261 -1524 Master Level;
#X text 990 -1823 2.5kHz-6.3kHz;
#X obj 1647 -1775 ctlin 86 1;
#X obj 2309 -1776 ctlin 87 1;
#X text 1650 -1818 6.3kHz- 11.4kHz;
#X text 2309 -1816 11.4KHz- 19kHz;
#X obj 2226 -1642 + 11430;
#X obj 2226 -1698 * 60;
#X obj 1567 -1655 + 6350;
#X obj 1567 -1715 * 40;
#X floatatom 233 -1216 5 0 0 0 - - -, f 5;
#X obj 233 -1236 ctlin 2 1;
#X obj 233 -1116 / 127;
#X obj 400 -1236 ctlin 3 1;
#X floatatom 233 -1086 5 0 0 0 - - f13, f 5;
#X obj 304 -1176 tgl 16 1 band13 empty empty 17 7 0 10 #fcfcfc #000000
#000000 0 127;
#X obj 314 -1236 ctlin 85 1;
#X obj 233 -1176 *;
#X obj 233 -1146 * 20;
#X obj 344 -1176 tgl 16 1 empty empty empty 17 7 0 10 #fcfcfc #000000
#000000 0 127;
#X obj 400 -1176 *;
#X obj 480 -1236 ctlin 4 1;
#X floatatom 480 -1086 5 0 0 0 - - g13, f 5;
#X obj 135 -1206 tgl 55 0 eq4 empty empty 17 7 0 10 #fcfcfc #000000
#000000 0 127;
#X obj 270 -886 dac~;
#X obj 120 -1136 *~;
#X obj 270 -946 gainvu~;
#X msg 50 -1066 set 0 0;
#X text 23 -1086 set internal state;
#X obj 330 -946 init 60;
#X text 300 -976 Master Level;
#X floatatom 400 -1116 5 0 0 0 - - q13, f 5;
#X obj 480 -1116 - 39.5;
#X floatatom 560 -1086 5 0 0 0 - - i13, f 5;
#X obj 560 -1116 -27;
#X obj 440 -1176 tgl 16 1 empty empty empty 17 7 0 10 #fcfcfc #000000
#000000 0 127;
#X obj 520 -1176 tgl 16 1 empty empty empty 17 7 0 10 #fcfcfc #000000
#000000 0 127;
#X obj 480 -1176 *;
#X obj 560 -1176 *;
#X text 240 -1026 Input \, centre frequency \, Q (slope) \, gain (dB)
\, interpolation time (ms), f 73;
#X text 233 -1256 Freqeuncy;
#X text 314 -1276 20Hz-2.5kHz;
#X text 314 -1256 Band On/Off;
#X text 233 -1276 Centre;
#X text 400 -1256 Q (Slope);
#X text 480 -1256 Gain;
#X text 560 -1256 Interpolation;
#X text 50 -1256 Audio input;
#X obj 560 -1236 ctlin 5 1;
#X obj 480 -1146 / 256;
#X obj 560 -1146 / 12.7;
#X floatatom 890 -1216 5 0 0 0 - - -, f 5;
#X obj 890 -1236 ctlin 2 1;
#X obj 890 -1126 / 127;
#X obj 1059 -1234 ctlin 3 1;
#X floatatom 890 -1076 5 0 0 0 - - f14, f 5;
#X obj 963 -1174 tgl 16 1 band14 empty empty 17 7 0 10 #fcfcfc #000000
#000000 0 127;
#X obj 890 -1186 *;
#X obj 1003 -1174 tgl 16 1 empty empty empty 17 7 0 10 #fcfcfc #000000
#000000 0 127;
#X obj 1059 -1174 *;
#X obj 1139 -1234 ctlin 4 1;
#X floatatom 1139 -1084 5 0 0 0 - - g14, f 5;
#X obj 794 -1204 tgl 55 0 empty empty empty 17 7 0 10 #fcfcfc #000000
#000000 0 127;
#X obj 779 -1134 *~;
#X msg 709 -1064 set 0 0;
#X text 682 -1084 set internal state;
#X floatatom 1059 -1114 5 0 0 0 - - q14, f 5;
#X obj 1139 -1114 - 39.5;
#X floatatom 1219 -1084 5 0 0 0 - - i14, f 5;
#X obj 1219 -1114 -27;
#X obj 1099 -1174 tgl 16 1 empty empty empty 17 7 0 10 #fcfcfc #000000
#000000 0 127;
#X obj 1179 -1174 tgl 16 1 empty empty empty 17 7 0 10 #fcfcfc #000000
#000000 0 127;
#X obj 1139 -1174 *;
#X obj 1219 -1174 *;
#X text 899 -1024 Input \, centre frequency \, Q (slope) \, gain (dB)
\, interpolation time (ms), f 73;
#X text 890 -1256 Freqeuncy;
#X text 973 -1254 Band On/Off;
#X text 890 -1276 Centre;
#X text 1059 -1254 Q (Slope);
#X text 1139 -1254 Gain;
#X text 1219 -1254 Interpolation;
#X text 700 -1236 Audio input;
#X obj 1219 -1234 ctlin 5 1;
#X obj 1139 -1144 / 256;
#X obj 1219 -1144 / 12.7;
#X obj 973 -1234 ctlin 105 1;
#X obj 890 -1100 + 2540;
#X obj 890 -1156 * 30;
#X obj 895 -892 dac~;
#X obj 895 -952 gainvu~;
#X obj 955 -952 init 60;
#X text 925 -982 Master Level;
#X floatatom 1552 -1209 5 0 0 0 - - -, f 5;
#X obj 1552 -1229 ctlin 2 1;
#X obj 1550 -1136 / 127;
#X obj 1719 -1229 ctlin 3 1;
#X floatatom 1552 -1079 5 0 0 0 - - f15, f 5;
#X obj 1623 -1169 tgl 16 1 band15 empty empty 17 7 0 10 #fcfcfc #000000
#000000 0 127;
#X obj 1551 -1186 *;
#X obj 1663 -1169 tgl 16 1 empty empty empty 17 7 0 10 #fcfcfc #000000
#000000 0 127;
#X obj 1719 -1169 *;
#X obj 1799 -1229 ctlin 4 1;
#X floatatom 1799 -1079 5 0 0 0 - - g15, f 5;
#X obj 1454 -1199 tgl 55 0 empty empty empty 17 7 0 10 #fcfcfc #000000
#000000 0 127;
#X obj 1589 -879 dac~;
#X obj 1439 -1129 *~;
#X obj 1589 -939 gainvu~;
#X msg 1369 -1059 set 0 0;
#X text 1342 -1079 set internal state;
#X obj 1649 -939 init 60;
#X text 1619 -969 Master Level;
#X floatatom 1719 -1109 5 0 0 0 - - q15, f 5;
#X obj 1799 -1109 - 39.5;
#X floatatom 1879 -1079 5 0 0 0 - - i15, f 5;
#X obj 1879 -1109 -27;
#X obj 1759 -1169 tgl 16 1 empty empty empty 17 7 0 10 #fcfcfc #000000
#000000 0 127;
#X obj 1839 -1169 tgl 16 1 empty empty empty 17 7 0 10 #fcfcfc #000000
#000000 0 127;
#X obj 1799 -1169 *;
#X obj 1879 -1169 *;
#X text 1559 -1019 Input \, centre frequency \, Q (slope) \, gain (dB)
\, interpolation time (ms), f 73;
#X text 1552 -1249 Freqeuncy;
#X text 1633 -1249 Band On/Off;
#X text 1552 -1269 Centre;
#X text 1719 -1249 Q (Slope);
#X text 1799 -1249 Gain;
#X text 1879 -1249 Interpolation;
#X text 1360 -1236 Audio input;
#X obj 1879 -1229 ctlin 5 1;
#X obj 1799 -1139 / 256;
#X obj 1879 -1139 / 12.7;
#X floatatom 2209 -1209 5 0 0 0 - - -, f 5;
#X obj 2209 -1229 ctlin 2 1;
#X obj 2209 -1119 / 127;
#X obj 2378 -1227 ctlin 3 1;
#X floatatom 2209 -1069 5 0 0 0 - - f16, f 5;
#X obj 2282 -1167 tgl 16 1 band16 empty empty 17 7 0 10 #fcfcfc #000000
#000000 0 127;
#X obj 2209 -1179 *;
#X obj 2322 -1167 tgl 16 1 empty empty empty 17 7 0 10 #fcfcfc #000000
#000000 0 127;
#X obj 2378 -1167 *;
#X obj 2458 -1227 ctlin 4 1;
#X floatatom 2458 -1077 5 0 0 0 - - g16, f 5;
#X obj 2113 -1197 tgl 55 0 empty empty empty 17 7 0 10 #fcfcfc #000000
#000000 0 127;
#X obj 2098 -1127 *~;
#X msg 2028 -1057 set 0 0;
#X text 2001 -1077 set internal state;
#X floatatom 2378 -1107 5 0 0 0 - - q16, f 5;
#X obj 2458 -1107 - 39.5;
#X floatatom 2538 -1077 5 0 0 0 - - i16, f 5;
#X obj 2538 -1107 -27;
#X obj 2418 -1167 tgl 16 1 empty empty empty 17 7 0 10 #fcfcfc #000000
#000000 0 127;
#X obj 2498 -1167 tgl 16 1 empty empty empty 17 7 0 10 #fcfcfc #000000
#000000 0 127;
#X obj 2458 -1167 *;
#X obj 2538 -1167 *;
#X text 2218 -1017 Input \, centre frequency \, Q (slope) \, gain (dB)
\, interpolation time (ms), f 73;
#X text 2209 -1249 Freqeuncy;
#X text 2292 -1247 Band On/Off;
#X text 2209 -1269 Centre;
#X text 2378 -1247 Q (Slope);
#X text 2458 -1247 Gain;
#X text 2538 -1247 Interpolation;
#X text 2020 -1236 Audio input;
#X obj 2538 -1227 ctlin 5 1;
#X obj 2458 -1137 / 256;
#X obj 2538 -1137 / 12.7;
#X obj 2214 -885 dac~;
#X obj 2214 -945 gainvu~;
#X obj 2274 -945 init 60;
#X text 2244 -975 Master Level;
#X text 973 -1274 2.5kHz-6.3kHz;
#X obj 1630 -1226 ctlin 86 1;
#X obj 2292 -1227 ctlin 87 1;
#X text 1633 -1269 6.3kHz- 11.4kHz;
#X text 2292 -1267 11.4KHz- 19kHz;
#X obj 2209 -1093 + 11430;
#X obj 2209 -1149 * 60;
#X obj 1550 -1106 + 6350;
#X obj 1550 -1166 * 40;
#X text 171 -2363 EQ 2 On/off;
#X obj 176 -2343 ctlin 89 1;
#X text 830 -2361 EQ 2 On/off;
#X obj 835 -2341 ctlin 89 1;
#X obj 1495 -2336 ctlin 89 1;
#X text 1490 -2356 EQ 2 On/off;
#X text 2149 -2354 EQ 2 On/off;
#X obj 2154 -2334 ctlin 89 1;
#X text 147 -1805 EQ 3 On/off;
#X obj 152 -1789 ctlin 90 1;
#X text 806 -1803 EQ 3 On/off;
#X obj 811 -1783 ctlin 90 1;
#X text 1466 -1798 EQ 3 On/off;
#X obj 1471 -1778 ctlin 90 1;
#X obj 2130 -1776 ctlin 90 1;
#X text 2122 -1799 EQ 3 On/off;
#X text 130 -1256 EQ 4 On/off;
#X obj 135 -1236 ctlin 93 1;
#X text 789 -1254 EQ 4 On/off;
#X obj 794 -1234 ctlin 93 1;
#X text 1449 -1249 EQ 4 On/off;
#X obj 1454 -1229 ctlin 93 1;
#X text 2108 -1247 EQ 4 On/off;
#X obj 2113 -1227 ctlin 93 1;
#X obj -110 -1930 expr $f1 * ($f2 / 4096);
#X obj 360 -2496 s band1low;
#X obj 990 -2476 s band1mid;
#X obj 1700 -2476 s band1high;
#X obj 2350 -2466 s band1vhigh;
#X obj 330 -2446 s~ spec;
#X obj 840 -2456 s~ spec1;
#X obj 2340 -2426 s~ spec3;
#X obj 1740 -2426 s~ spec2;
#X obj 1545 -1986 s~ spec6;
#X obj 545 -2036 s~ spec4;
#X obj 860 -1996 s~ spec5;
#X obj 2165 -1986 s~ spec7;
#X obj 180 -1396 s~ spec8;
#X obj 830 -1436 s~ spec9;
#X obj 1510 -1426 s~ spec10;
#X obj 2140 -1426 s~ spec11;
#X obj 170 -886 s~ spec12;
#X obj 790 -896 s~ spec13;
#X obj 1460 -876 s~ spec14;
#X obj 2090 -886 s~ spec15;
#X obj 1000 -2016 s band2mid;
#X obj 370 -1986 s band2low;
#X obj 1700 -1986 s band2high;
#X obj 2330 -1986 s band2vhigh;
#X obj 370 -1436 s band3low;
#X obj 1010 -1436 s band3mid;
#X obj 1690 -1416 s band3high;
#X obj 2330 -1416 s band3vhigh;
#X obj 2310 -906 s band4vhigh;
#X obj 1710 -896 s band4high;
#X obj 1000 -896 s band4mid;
#X obj 380 -886 s band4low;
#X obj -130 -2710 noise~;
#X obj -70 -2670 tgl 19 0 noisebypass empty empty 17 7 0 10 #fcfcfc
#000000 #000000 0 127;
#X obj -120 -2630 dac~;
#X obj -120 -2650 *~;
#X obj 917 -2623 para_bp2~ 1440 2 -12 200;
#X obj 258 -2625 para_bp2~ 1440 2 -12 200;
#X obj 428 -2725 / 512;
#X obj -90 -2550 tgl 25 0 record empty empty 17 7 0 10 #fcfcfc #000000
#000000 0 127;
#X obj -130 -2490 writesf~ 2;
#X obj -130 -2516 *~;
#X obj -130 -2546 adc~;
#X obj 1087 -2723 / 512;
#X obj 1577 -2618 para_bp2~ 1440 2 -12 200;
#X obj 1747 -2718 / 512;
#X obj 2236 -2616 para_bp2~ 1440 2 -12 200;
#X obj 2410 -2716 / 512;
#X obj 270 -2156 para_bp2~ 1440 2 -12 200;
#X obj 441 -2253 / 512;
#X obj 930 -2151 para_bp2~ 1440 2 -12 200;
#X obj 1100 -2251 / 512;
#X obj 1760 -2246 / 512;
#X obj 1590 -2146 para_bp2~ 1440 2 -12 200;
#X obj 2249 -2144 para_bp2~ 1440 2 -12 200;
#X obj 2420 -2246 / 512;
#X obj 247 -1595 para_bp2~ 1440 2 -12 200;
#X obj 417 -1695 / 512;
#X obj 1076 -1693 / 512;
#X obj 910 -1596 para_bp2~ 1440 2 -12 200;
#X obj 1566 -1588 para_bp2~ 1440 2 -12 200;
#X obj 1736 -1688 / 512;
#X obj 2230 -1586 para_bp2~ 1440 2 -12 200;
#X obj 2400 -1686 / 512;
#X obj 2208 -1037 para_bp2~ 1440 2 -12 200;
#X obj 2378 -1137 / 512;
#X obj 1720 -1136 / 512;
#X obj 1549 -1039 para_bp2~ 1440 2 -12 200;
#X obj 1059 -1144 / 512;
#X obj 889 -1044 para_bp2~ 1440 2 -12 200;
#X obj 230 -1046 para_bp2~ 1440 2 -12 200;
#X obj 400 -1146 / 512;
#X floatatom 300 -2666 5 0 0 0 - f1 -, f 5;
#X floatatom 390 -2696 5 0 0 0 - q1 -, f 5;
#X floatatom 960 -2656 5 0 0 0 - f2 -, f 5;
#X floatatom 400 -2656 5 0 0 0 - g1 -, f 5;
#X floatatom 470 -2646 5 0 0 0 - i1 -, f 5;
#X floatatom 1000 -2656 5 0 0 0 - q2 -, f 5;
#X floatatom 1050 -2656 5 0 0 0 - g2 -, f 5;
#X floatatom 1100 -2656 5 0 0 0 - i2 -, f 5;
#X floatatom 1620 -2656 5 0 0 0 - f3 -, f 5;
#X floatatom 1670 -2656 5 0 0 0 - q3 -, f 5;
#X floatatom 1710 -2656 5 0 0 0 - g3 -, f 5;
#X floatatom 1750 -2656 4 0 0 0 - i3 -, f 4;
#X floatatom 2280 -2646 5 0 0 0 - f4 -, f 5;
#X floatatom 2330 -2656 5 0 0 0 - f2 -, f 5;
#X floatatom 2370 -2656 5 0 0 0 - g4 -, f 5;
#X floatatom 2410 -2646 5 0 0 0 - i4 -, f 5;
#X floatatom 310 -2196 5 0 0 0 - f5 -, f 5;
#X floatatom 350 -2196 5 0 0 0 - q5 -, f 5;
#X floatatom 400 -2196 5 0 0 0 - g5 -, f 5;
#X floatatom 450 -2196 5 0 0 0 - i5 -, f 5;
#X floatatom 970 -2186 5 0 0 0 - f6 -, f 5;
#X floatatom 1010 -2186 5 0 0 0 - q6 -, f 5;
#X floatatom 1050 -2186 5 0 0 0 - g6 -, f 5;
#X floatatom 1090 -2186 5 0 0 0 - i6 -, f 5;
#X floatatom 1630 -2186 5 0 0 0 - f7 -, f 5;
#X floatatom 1670 -2186 5 0 0 0 - g7 -, f 5;
#X floatatom 1710 -2186 5 0 0 0 - g7 -, f 5;
#X floatatom 1750 -2186 5 0 0 0 - i7 -, f 5;
#X floatatom 2290 -2176 5 0 0 0 - f8 -, f 5;
#X floatatom 2330 -2176 5 0 0 0 - q8 -, f 5;
#X floatatom 2370 -2176 5 0 0 0 - g8 -, f 5;
#X floatatom 2420 -2176 5 0 0 0 - i8 -, f 5;
#X floatatom 290 -1636 5 0 0 0 - f9 -, f 5;
#X floatatom 330 -1636 5 0 0 0 - q9 -, f 5;
#X floatatom 370 -1636 5 0 0 0 - g9 -, f 5;
#X floatatom 420 -1636 5 0 0 0 - i9 -, f 5;
#X floatatom 940 -1626 5 0 0 0 - f10 -, f 5;
#X floatatom 980 -1626 5 0 0 0 - q10 -, f 5;
#X floatatom 1030 -1626 5 0 0 0 - g10 -, f 5;
#X floatatom 1080 -1626 5 0 0 0 - i10 -, f 5;
#X floatatom 1610 -1626 5 0 0 0 - f11 -, f 5;
#X floatatom 1660 -1626 5 0 0 0 - q11 -, f 5;
#X floatatom 1710 -1626 5 0 0 0 - g11 -, f 5;
#X floatatom 1750 -1626 5 0 0 0 - i11 -, f 5;
#X floatatom 2270 -1616 5 0 0 0 - f12 -, f 5;
#X floatatom 2310 -1616 5 0 0 0 - q12 -, f 5;
#X floatatom 2360 -1616 5 0 0 0 - g12 -, f 5;
#X floatatom 2400 -1616 5 0 0 0 - i12 -, f 5;
#X floatatom 270 -1086 5 0 0 0 - f13 -, f 5;
#X floatatom 310 -1086 5 0 0 0 - q13 -, f 5;
#X floatatom 350 -1086 5 0 0 0 - g13 -, f 5;
#X floatatom 390 -1086 5 0 0 0 - i13 -, f 5;
#X floatatom 920 -1076 5 0 0 0 - f14 -, f 5;
#X floatatom 960 -1076 5 0 0 0 - q14 -, f 5;
#X floatatom 1000 -1076 5 0 0 0 - g14 -, f 5;
#X floatatom 1040 -1076 5 0 0 0 - i14 -, f 5;
#X floatatom 1590 -1076 5 0 0 0 - f15 -, f 5;
#X floatatom 1630 -1076 5 0 0 0 - q15 -, f 5;
#X floatatom 1670 -1076 5 0 0 0 - g15 -, f 5;
#X floatatom 1710 -1076 5 0 0 0 - i15 -, f 5;
#X floatatom 2250 -1076 5 0 0 0 - f16 -, f 5;
#X floatatom 2290 -1076 5 0 0 0 - q16 -, f 5;
#X floatatom 2330 -1076 5 0 0 0 - g16 -, f 5;
#X floatatom 2370 -1076 5 0 0 0 - i16 -, f 5;
#X obj 130 -2816 tgl 15 0 empty noisedemo empty 17 7 0 10 #fcfcfc #000000
#000000 0 127;
#X obj 80 -2816 noise~;
#X obj 110 -2786 *~;
#X text -130 -2730 Noise bypass;
#X text -113 -2811 dsp ON/OFF;
#X floatatom -130 -2771 5 0 0 0 - - cpu, f 5;
#X text -90 -2770 % cpu;
#X obj -130 -2791 dsp;
#X obj -130 -2811 tgl 15 0 dsp empty empty 8 -8 0 10 #fcfcfc #000000
#000000 0 127;
#X obj 83 -2764 tgl 15 0 empty adctog empty 17 7 0 10 #fcfcfc #000000
#000000 0 127;
#X obj 63 -2734 *~;
#X obj 33 -2764 adc~;
#X obj 777 -2798 tgl 15 0 empty noisedemo empty 17 7 0 10 #fcfcfc #000000
#000000 0 127;
#X obj 727 -2798 noise~;
#X obj 757 -2768 *~;
#X obj 730 -2746 tgl 15 0 empty adctog empty 17 7 0 10 #fcfcfc #000000
#000000 0 127;
#X obj 710 -2716 *~;
#X obj 680 -2746 adc~;
#X obj 1437 -2798 tgl 15 0 empty noisedemo empty 17 7 0 10 #fcfcfc
#000000 #000000 0 127;
#X obj 1387 -2798 noise~;
#X obj 1417 -2768 *~;
#X obj 1360 -2760 tgl 15 0 empty adctog empty 17 7 0 10 #fcfcfc #000000
#000000 0 127;
#X obj 1340 -2730 *~;
#X obj 1310 -2760 adc~;
#X obj 2097 -2788 tgl 15 0 empty noisedemo empty 17 7 0 10 #fcfcfc
#000000 #000000 0 127;
#X obj 2047 -2788 noise~;
#X obj 2077 -2758 *~;
#X obj 2050 -2736 tgl 15 0 empty adctog empty 17 7 0 10 #fcfcfc #000000
#000000 0 127;
#X obj 2030 -2706 *~;
#X obj 2000 -2736 adc~;
#X obj 137 -2318 tgl 15 0 empty noisedemo empty 17 7 0 10 #fcfcfc #000000
#000000 0 127;
#X obj 87 -2318 noise~;
#X obj 117 -2288 *~;
#X obj 90 -2266 tgl 15 0 empty adctog empty 17 7 0 10 #fcfcfc #000000
#000000 0 127;
#X obj 70 -2236 *~;
#X obj 40 -2266 adc~;
#X obj 790 -2316 tgl 15 0 empty noisedemo empty 17 7 0 10 #fcfcfc #000000
#000000 0 127;
#X obj 740 -2316 noise~;
#X obj 770 -2286 *~;
#X obj 720 -2300 tgl 15 0 empty adctog empty 17 7 0 10 #fcfcfc #000000
#000000 0 127;
#X obj 700 -2270 *~;
#X obj 670 -2300 adc~;
#X obj 1447 -2308 tgl 15 0 empty noisedemo empty 17 7 0 10 #fcfcfc
#000000 #000000 0 127;
#X obj 1397 -2308 noise~;
#X obj 1427 -2278 *~;
#X obj 1370 -2300 tgl 15 0 empty adctog empty 17 7 0 10 #fcfcfc #000000
#000000 0 127;
#X obj 1350 -2270 *~;
#X obj 1320 -2300 adc~;
#X obj 2107 -2308 tgl 15 0 empty noisedemo empty 17 7 0 10 #fcfcfc
#000000 #000000 0 127;
#X obj 2057 -2308 noise~;
#X obj 2087 -2278 *~;
#X obj 2040 -2280 tgl 15 0 empty adctog empty 17 7 0 10 #fcfcfc #000000
#000000 0 127;
#X obj 2020 -2250 *~;
#X obj 1990 -2280 adc~;
#X obj 117 -1768 tgl 15 0 empty noisedemo empty 17 7 0 10 #fcfcfc #000000
#000000 0 127;
#X obj 67 -1768 noise~;
#X obj 97 -1738 *~;
#X obj 40 -1760 tgl 15 0 empty adctog empty 17 7 0 10 #fcfcfc #000000
#000000 0 127;
#X obj 20 -1730 *~;
#X obj -10 -1760 adc~;
#X obj 777 -1758 tgl 15 0 empty noisedemo empty 17 7 0 10 #fcfcfc #000000
#000000 0 127;
#X obj 727 -1758 noise~;
#X obj 757 -1728 *~;
#X obj 690 -1760 tgl 15 0 empty adctog empty 17 7 0 10 #fcfcfc #000000
#000000 0 127;
#X obj 670 -1730 *~;
#X obj 640 -1760 adc~;
#X obj 1437 -1758 tgl 15 0 empty noisedemo empty 17 7 0 10 #fcfcfc
#000000 #000000 0 127;
#X obj 1387 -1758 noise~;
#X obj 1417 -1728 *~;
#X obj 1360 -1740 tgl 15 0 empty adctog empty 17 7 0 10 #fcfcfc #000000
#000000 0 127;
#X obj 1340 -1710 *~;
#X obj 1310 -1740 adc~;
#X obj 2097 -1748 tgl 15 0 empty noisedemo empty 17 7 0 10 #fcfcfc
#000000 #000000 0 127;
#X obj 2047 -1748 noise~;
#X obj 2077 -1718 *~;
#X obj 2020 -1740 tgl 15 0 empty adctog empty 17 7 0 10 #fcfcfc #000000
#000000 0 127;
#X obj 2000 -1710 *~;
#X obj 1970 -1740 adc~;
#X obj 97 -1218 tgl 15 0 empty noisedemo empty 17 7 0 10 #fcfcfc #000000
#000000 0 127;
#X obj 47 -1218 noise~;
#X obj 77 -1188 *~;
#X obj 20 -1200 tgl 15 0 empty adctog empty 17 7 0 10 #fcfcfc #000000
#000000 0 127;
#X obj 0 -1170 *~;
#X obj -30 -1200 adc~;
#X obj 757 -1208 tgl 15 0 empty noisedemo empty 17 7 0 10 #fcfcfc #000000
#000000 0 127;
#X obj 707 -1208 noise~;
#X obj 737 -1178 *~;
#X obj 680 -1200 tgl 15 0 empty adctog empty 17 7 0 10 #fcfcfc #000000
#000000 0 127;
#X obj 660 -1170 *~;
#X obj 630 -1200 adc~;
#X obj 1417 -1208 tgl 15 0 empty noisedemo empty 17 7 0 10 #fcfcfc
#000000 #000000 0 127;
#X obj 1367 -1208 noise~;
#X obj 1397 -1178 *~;
#X obj 1330 -1200 tgl 15 0 empty adctog empty 17 7 0 10 #fcfcfc #000000
#000000 0 127;
#X obj 1310 -1170 *~;
#X obj 1280 -1200 adc~;
#X obj 2067 -1208 tgl 15 0 empty noisedemo empty 17 7 0 10 #fcfcfc
#000000 #000000 0 127;
#X obj 2017 -1208 noise~;
#X obj 2047 -1178 *~;
#X obj 1990 -1200 tgl 15 0 empty adctog empty 17 7 0 10 #fcfcfc #000000
#000000 0 127;
#X obj 1970 -1170 *~;
#X obj 1940 -1200 adc~;
#X msg -100 -2520 open recording.wav;
#X obj -130 -2310 tgl 25 0 adctog empty empty 17 7 0 10 #fcfcfc #000000
#000000 0 127;
#X text -130 -2360 ADC input;
#X obj -130 -2400 tgl 25 0 noisedemo empty empty 17 7 0 10 #fcfcfc
#000000 #000000 0 127;
#X text -130 -2450 Noise bypass;
#X obj -130 -2841 ctlin 70 1;
#X obj -90 -2570 ctlin 71 1;
#X obj -70 -2710 ctlin 72 1;
#X obj -130 -2430 ctlin 74 1;
#X obj -130 -2340 ctlin 73 1;
#X obj 120 -2750 /~ 100;
#X obj 770 -2740 /~ 100;
#X obj 1420 -2740 /~ 100;
#X obj 2090 -2730 /~ 100;
#X obj 120 -2260 /~ 100;
#X obj 750 -2250 /~ 100;
#X obj 1400 -2250 /~ 100;
#X obj 2080 -2240 /~ 100;
#X obj 80 -1700 /~ 100;
#X obj 720 -1690 /~ 100;
#X obj 1390 -1690 /~ 100;
#X obj 2050 -1690 /~ 100;
#X obj 60 -1150 /~ 100;
#X obj 710 -1140 /~ 100;
#X obj 1370 -1150 /~ 100;
#X obj 2030 -1140 /~ 100;
#X obj -130 -2680 /~ 100;
#X text -130 -2590 Record function;
#X text -135 -2263 Spectrum analsyser;
#X text 36 -2086 Amp threshold;
#X connect 0 0 7 0;
#X connect 1 0 0 0;
#X connect 2 0 4 0;
#X connect 3 0 10 0;
#X connect 5 0 7 1;
#X connect 6 0 5 0;
#X connect 6 0 9 0;
#X connect 6 0 26 0;
#X connect 6 0 27 0;
#X connect 7 0 8 0;
#X connect 8 0 2 0;
#X connect 9 0 10 1;
#X connect 10 0 759 0;
#X connect 11 0 28 0;
#X connect 13 0 16 1;
#X connect 15 0 13 0;
#X connect 16 0 758 0;
#X connect 17 0 14 0;
#X connect 17 0 14 1;
#X connect 17 0 725 0;
#X connect 17 2 721 0;
#X connect 18 0 758 0;
#X connect 20 0 17 1;
#X connect 23 0 12 0;
#X connect 25 0 24 0;
#X connect 26 0 28 1;
#X connect 27 0 29 1;
#X connect 28 0 41 0;
#X connect 29 0 42 0;
#X connect 40 0 29 0;
#X connect 41 0 23 0;
#X connect 42 0 25 0;
#X connect 43 0 48 0;
#X connect 43 0 720 0;
#X connect 44 0 720 1;
#X connect 45 0 59 1;
#X connect 45 0 62 0;
#X connect 46 0 54 0;
#X connect 47 0 50 1;
#X connect 47 1 43 0;
#X connect 47 2 44 0;
#X connect 48 0 43 1;
#X connect 49 0 52 0;
#X connect 50 0 49 1;
#X connect 51 0 49 0;
#X connect 51 1 50 0;
#X connect 53 0 56 0;
#X connect 54 0 55 0;
#X connect 54 0 45 0;
#X connect 55 0 54 1;
#X connect 56 0 46 0;
#X connect 56 1 57 0;
#X connect 57 0 54 1;
#X connect 57 0 43 1;
#X connect 58 0 59 0;
#X connect 59 0 47 0;
#X connect 60 0 61 0;
#X connect 60 0 62 1;
#X connect 62 0 58 0;
#X connect 63 0 69 0;
#X connect 64 0 63 0;
#X connect 65 0 100 0;
#X connect 66 0 71 0;
#X connect 68 0 69 1;
#X connect 69 0 101 0;
#X connect 70 0 71 1;
#X connect 71 0 764 0;
#X connect 72 0 85 0;
#X connect 74 0 76 1;
#X connect 75 0 74 0;
#X connect 76 0 757 0;
#X connect 77 0 757 0;
#X connect 80 0 73 0;
#X connect 82 0 81 0;
#X connect 83 0 85 1;
#X connect 84 0 86 1;
#X connect 85 0 97 0;
#X connect 86 0 98 0;
#X connect 96 0 86 0;
#X connect 97 0 80 0;
#X connect 98 0 82 0;
#X connect 99 0 68 0;
#X connect 99 0 70 0;
#X connect 99 0 83 0;
#X connect 99 0 84 0;
#X connect 100 0 67 0;
#X connect 101 0 65 0;
#X connect 103 0 102 0;
#X connect 103 0 102 1;
#X connect 103 0 726 0;
#X connect 103 2 722 0;
#X connect 104 0 103 1;
#X connect 106 0 112 0;
#X connect 107 0 106 0;
#X connect 108 0 193 0;
#X connect 109 0 114 0;
#X connect 111 0 112 1;
#X connect 112 0 194 0;
#X connect 113 0 114 1;
#X connect 114 0 766 0;
#X connect 115 0 132 0;
#X connect 117 0 120 1;
#X connect 119 0 117 0;
#X connect 120 0 765 0;
#X connect 121 0 118 0;
#X connect 121 0 118 1;
#X connect 121 0 728 0;
#X connect 121 2 723 0;
#X connect 122 0 765 0;
#X connect 124 0 121 1;
#X connect 127 0 116 0;
#X connect 129 0 128 0;
#X connect 130 0 132 1;
#X connect 131 0 133 1;
#X connect 132 0 144 0;
#X connect 133 0 145 0;
#X connect 143 0 133 0;
#X connect 144 0 127 0;
#X connect 145 0 129 0;
#X connect 146 0 152 0;
#X connect 147 0 146 0;
#X connect 148 0 191 0;
#X connect 149 0 154 0;
#X connect 151 0 152 1;
#X connect 152 0 192 0;
#X connect 153 0 154 1;
#X connect 154 0 768 0;
#X connect 155 0 168 0;
#X connect 157 0 159 1;
#X connect 158 0 157 0;
#X connect 159 0 767 0;
#X connect 160 0 767 0;
#X connect 163 0 156 0;
#X connect 165 0 164 0;
#X connect 166 0 168 1;
#X connect 167 0 169 1;
#X connect 168 0 180 0;
#X connect 169 0 181 0;
#X connect 179 0 169 0;
#X connect 180 0 163 0;
#X connect 181 0 165 0;
#X connect 183 0 182 0;
#X connect 183 0 182 1;
#X connect 183 0 727 0;
#X connect 183 2 724 0;
#X connect 184 0 183 1;
#X connect 187 0 111 0;
#X connect 187 0 113 0;
#X connect 187 0 130 0;
#X connect 187 0 131 0;
#X connect 188 0 151 0;
#X connect 188 0 153 0;
#X connect 188 0 166 0;
#X connect 188 0 167 0;
#X connect 191 0 150 0;
#X connect 192 0 148 0;
#X connect 193 0 110 0;
#X connect 194 0 108 0;
#X connect 195 0 202 0;
#X connect 196 0 195 0;
#X connect 197 0 199 0;
#X connect 198 0 205 0;
#X connect 200 0 202 1;
#X connect 201 0 200 0;
#X connect 201 0 204 0;
#X connect 201 0 220 0;
#X connect 201 0 221 0;
#X connect 202 0 203 0;
#X connect 203 0 197 0;
#X connect 204 0 205 1;
#X connect 205 0 770 0;
#X connect 206 0 222 0;
#X connect 208 0 210 1;
#X connect 210 0 769 0;
#X connect 211 0 209 0;
#X connect 211 0 209 1;
#X connect 211 0 730 0;
#X connect 211 2 742 0;
#X connect 212 0 769 0;
#X connect 214 0 211 1;
#X connect 217 0 207 0;
#X connect 219 0 218 0;
#X connect 220 0 222 1;
#X connect 221 0 223 1;
#X connect 222 0 234 0;
#X connect 223 0 235 0;
#X connect 233 0 223 0;
#X connect 234 0 217 0;
#X connect 235 0 219 0;
#X connect 236 0 242 0;
#X connect 237 0 236 0;
#X connect 238 0 271 0;
#X connect 239 0 244 0;
#X connect 241 0 242 1;
#X connect 242 0 272 0;
#X connect 243 0 244 1;
#X connect 244 0 772 0;
#X connect 245 0 257 0;
#X connect 247 0 248 1;
#X connect 248 0 771 0;
#X connect 249 0 771 0;
#X connect 252 0 246 0;
#X connect 254 0 253 0;
#X connect 255 0 257 1;
#X connect 256 0 258 1;
#X connect 257 0 268 0;
#X connect 258 0 269 0;
#X connect 267 0 258 0;
#X connect 268 0 252 0;
#X connect 269 0 254 0;
#X connect 270 0 241 0;
#X connect 270 0 243 0;
#X connect 270 0 255 0;
#X connect 270 0 256 0;
#X connect 271 0 240 0;
#X connect 272 0 238 0;
#X connect 274 0 273 0;
#X connect 274 0 273 1;
#X connect 274 0 731 0;
#X connect 274 2 741 0;
#X connect 275 0 274 1;
#X connect 277 0 283 0;
#X connect 278 0 277 0;
#X connect 279 0 360 0;
#X connect 280 0 285 0;
#X connect 282 0 283 1;
#X connect 283 0 361 0;
#X connect 284 0 285 1;
#X connect 285 0 773 0;
#X connect 286 0 302 0;
#X connect 288 0 290 1;
#X connect 290 0 774 0;
#X connect 291 0 289 0;
#X connect 291 0 289 1;
#X connect 291 0 729 0;
#X connect 291 2 743 0;
#X connect 292 0 774 0;
#X connect 294 0 291 1;
#X connect 297 0 287 0;
#X connect 299 0 298 0;
#X connect 300 0 302 1;
#X connect 301 0 303 1;
#X connect 302 0 313 0;
#X connect 303 0 314 0;
#X connect 312 0 303 0;
#X connect 313 0 297 0;
#X connect 314 0 299 0;
#X connect 315 0 321 0;
#X connect 316 0 315 0;
#X connect 317 0 358 0;
#X connect 318 0 323 0;
#X connect 320 0 321 1;
#X connect 321 0 359 0;
#X connect 322 0 323 1;
#X connect 323 0 776 0;
#X connect 324 0 336 0;
#X connect 326 0 327 1;
#X connect 327 0 775 0;
#X connect 328 0 775 0;
#X connect 331 0 325 0;
#X connect 333 0 332 0;
#X connect 334 0 336 1;
#X connect 335 0 337 1;
#X connect 336 0 347 0;
#X connect 337 0 348 0;
#X connect 346 0 337 0;
#X connect 347 0 331 0;
#X connect 348 0 333 0;
#X connect 350 0 349 0;
#X connect 350 0 349 1;
#X connect 350 0 732 0;
#X connect 350 2 744 0;
#X connect 351 0 350 1;
#X connect 354 0 282 0;
#X connect 354 0 284 0;
#X connect 354 0 300 0;
#X connect 354 0 301 0;
#X connect 355 0 320 0;
#X connect 355 0 322 0;
#X connect 355 0 334 0;
#X connect 355 0 335 0;
#X connect 358 0 319 0;
#X connect 359 0 317 0;
#X connect 360 0 281 0;
#X connect 361 0 279 0;
#X connect 362 0 369 0;
#X connect 363 0 362 0;
#X connect 364 0 366 0;
#X connect 365 0 372 0;
#X connect 367 0 369 1;
#X connect 368 0 367 0;
#X connect 368 0 371 0;
#X connect 368 0 387 0;
#X connect 368 0 388 0;
#X connect 369 0 370 0;
#X connect 370 0 364 0;
#X connect 371 0 372 1;
#X connect 372 0 778 0;
#X connect 373 0 389 0;
#X connect 375 0 377 1;
#X connect 377 0 777 0;
#X connect 378 0 376 0;
#X connect 378 0 376 1;
#X connect 378 0 733 0;
#X connect 378 2 745 0;
#X connect 379 0 777 0;
#X connect 381 0 378 1;
#X connect 384 0 374 0;
#X connect 386 0 385 0;
#X connect 387 0 389 1;
#X connect 388 0 390 1;
#X connect 389 0 401 0;
#X connect 390 0 402 0;
#X connect 400 0 390 0;
#X connect 401 0 384 0;
#X connect 402 0 386 0;
#X connect 403 0 409 0;
#X connect 404 0 403 0;
#X connect 405 0 438 0;
#X connect 406 0 411 0;
#X connect 408 0 409 1;
#X connect 409 0 439 0;
#X connect 410 0 411 1;
#X connect 411 0 779 0;
#X connect 412 0 424 0;
#X connect 414 0 415 1;
#X connect 415 0 780 0;
#X connect 416 0 780 0;
#X connect 419 0 413 0;
#X connect 421 0 420 0;
#X connect 422 0 424 1;
#X connect 423 0 425 1;
#X connect 424 0 435 0;
#X connect 425 0 436 0;
#X connect 434 0 425 0;
#X connect 435 0 419 0;
#X connect 436 0 421 0;
#X connect 437 0 408 0;
#X connect 437 0 410 0;
#X connect 437 0 422 0;
#X connect 437 0 423 0;
#X connect 438 0 407 0;
#X connect 439 0 405 0;
#X connect 441 0 440 0;
#X connect 441 0 440 1;
#X connect 441 0 734 0;
#X connect 441 2 746 0;
#X connect 442 0 441 1;
#X connect 444 0 450 0;
#X connect 445 0 444 0;
#X connect 446 0 527 0;
#X connect 447 0 452 0;
#X connect 449 0 450 1;
#X connect 450 0 528 0;
#X connect 451 0 452 1;
#X connect 452 0 782 0;
#X connect 453 0 469 0;
#X connect 455 0 457 1;
#X connect 457 0 781 0;
#X connect 458 0 456 0;
#X connect 458 0 456 1;
#X connect 458 0 735 0;
#X connect 458 2 747 0;
#X connect 459 0 781 0;
#X connect 461 0 458 1;
#X connect 464 0 454 0;
#X connect 466 0 465 0;
#X connect 467 0 469 1;
#X connect 468 0 470 1;
#X connect 469 0 480 0;
#X connect 470 0 481 0;
#X connect 479 0 470 0;
#X connect 480 0 464 0;
#X connect 481 0 466 0;
#X connect 482 0 488 0;
#X connect 483 0 482 0;
#X connect 484 0 525 0;
#X connect 485 0 490 0;
#X connect 487 0 488 1;
#X connect 488 0 526 0;
#X connect 489 0 490 1;
#X connect 490 0 784 0;
#X connect 491 0 503 0;
#X connect 493 0 494 1;
#X connect 494 0 783 0;
#X connect 495 0 783 0;
#X connect 498 0 492 0;
#X connect 500 0 499 0;
#X connect 501 0 503 1;
#X connect 502 0 504 1;
#X connect 503 0 514 0;
#X connect 504 0 515 0;
#X connect 513 0 504 0;
#X connect 514 0 498 0;
#X connect 515 0 500 0;
#X connect 517 0 516 0;
#X connect 517 0 516 1;
#X connect 517 0 736 0;
#X connect 517 2 748 0;
#X connect 518 0 517 1;
#X connect 521 0 449 0;
#X connect 521 0 451 0;
#X connect 521 0 467 0;
#X connect 521 0 468 0;
#X connect 522 0 487 0;
#X connect 522 0 489 0;
#X connect 522 0 501 0;
#X connect 522 0 502 0;
#X connect 525 0 486 0;
#X connect 526 0 484 0;
#X connect 527 0 448 0;
#X connect 528 0 446 0;
#X connect 529 0 536 0;
#X connect 530 0 529 0;
#X connect 531 0 533 0;
#X connect 532 0 539 0;
#X connect 534 0 536 1;
#X connect 535 0 534 0;
#X connect 535 0 538 0;
#X connect 535 0 554 0;
#X connect 535 0 555 0;
#X connect 536 0 537 0;
#X connect 537 0 531 0;
#X connect 538 0 539 1;
#X connect 539 0 792 0;
#X connect 540 0 556 0;
#X connect 542 0 544 1;
#X connect 544 0 791 0;
#X connect 545 0 543 0;
#X connect 545 0 543 1;
#X connect 545 0 737 0;
#X connect 545 2 752 0;
#X connect 546 0 791 0;
#X connect 548 0 545 1;
#X connect 551 0 541 0;
#X connect 553 0 552 0;
#X connect 554 0 556 1;
#X connect 555 0 557 1;
#X connect 556 0 568 0;
#X connect 557 0 569 0;
#X connect 567 0 557 0;
#X connect 568 0 551 0;
#X connect 569 0 553 0;
#X connect 570 0 576 0;
#X connect 571 0 570 0;
#X connect 572 0 605 0;
#X connect 573 0 578 0;
#X connect 575 0 576 1;
#X connect 576 0 606 0;
#X connect 577 0 578 1;
#X connect 578 0 789 0;
#X connect 579 0 591 0;
#X connect 581 0 582 1;
#X connect 582 0 790 0;
#X connect 583 0 790 0;
#X connect 586 0 580 0;
#X connect 588 0 587 0;
#X connect 589 0 591 1;
#X connect 590 0 592 1;
#X connect 591 0 602 0;
#X connect 592 0 603 0;
#X connect 601 0 592 0;
#X connect 602 0 586 0;
#X connect 603 0 588 0;
#X connect 604 0 575 0;
#X connect 604 0 577 0;
#X connect 604 0 589 0;
#X connect 604 0 590 0;
#X connect 605 0 574 0;
#X connect 606 0 572 0;
#X connect 608 0 607 0;
#X connect 608 0 607 1;
#X connect 608 0 738 0;
#X connect 608 2 751 0;
#X connect 609 0 608 1;
#X connect 611 0 617 0;
#X connect 612 0 611 0;
#X connect 613 0 694 0;
#X connect 614 0 619 0;
#X connect 616 0 617 1;
#X connect 617 0 695 0;
#X connect 618 0 619 1;
#X connect 619 0 787 0;
#X connect 620 0 636 0;
#X connect 622 0 624 1;
#X connect 624 0 788 0;
#X connect 625 0 623 0;
#X connect 625 0 623 1;
#X connect 625 0 739 0;
#X connect 625 2 750 0;
#X connect 626 0 788 0;
#X connect 628 0 625 1;
#X connect 631 0 621 0;
#X connect 633 0 632 0;
#X connect 634 0 636 1;
#X connect 635 0 637 1;
#X connect 636 0 647 0;
#X connect 637 0 648 0;
#X connect 646 0 637 0;
#X connect 647 0 631 0;
#X connect 648 0 633 0;
#X connect 649 0 655 0;
#X connect 650 0 649 0;
#X connect 651 0 692 0;
#X connect 652 0 657 0;
#X connect 654 0 655 1;
#X connect 655 0 693 0;
#X connect 656 0 657 1;
#X connect 657 0 786 0;
#X connect 658 0 670 0;
#X connect 660 0 661 1;
#X connect 661 0 785 0;
#X connect 662 0 785 0;
#X connect 665 0 659 0;
#X connect 667 0 666 0;
#X connect 668 0 670 1;
#X connect 669 0 671 1;
#X connect 670 0 681 0;
#X connect 671 0 682 0;
#X connect 680 0 671 0;
#X connect 681 0 665 0;
#X connect 682 0 667 0;
#X connect 684 0 683 0;
#X connect 684 0 683 1;
#X connect 684 0 740 0;
#X connect 684 2 749 0;
#X connect 685 0 684 1;
#X connect 688 0 616 0;
#X connect 688 0 618 0;
#X connect 688 0 634 0;
#X connect 688 0 635 0;
#X connect 689 0 654 0;
#X connect 689 0 656 0;
#X connect 689 0 668 0;
#X connect 689 0 669 0;
#X connect 692 0 653 0;
#X connect 693 0 651 0;
#X connect 694 0 615 0;
#X connect 695 0 613 0;
#X connect 697 0 208 0;
#X connect 699 0 247 0;
#X connect 700 0 288 0;
#X connect 703 0 326 0;
#X connect 705 0 375 0;
#X connect 707 0 414 0;
#X connect 709 0 455 0;
#X connect 710 0 493 0;
#X connect 713 0 542 0;
#X connect 715 0 581 0;
#X connect 717 0 622 0;
#X connect 719 0 660 0;
#X connect 720 0 51 0;
#X connect 753 0 985 0;
#X connect 754 0 756 1;
#X connect 756 0 755 0;
#X connect 756 0 755 1;
#X connect 757 0 103 0;
#X connect 758 0 17 0;
#X connect 759 0 22 0;
#X connect 760 0 959 0;
#X connect 762 0 761 0;
#X connect 763 0 762 0;
#X connect 763 1 762 0;
#X connect 764 0 79 0;
#X connect 765 0 121 0;
#X connect 766 0 126 0;
#X connect 767 0 183 0;
#X connect 768 0 162 0;
#X connect 769 0 211 0;
#X connect 770 0 216 0;
#X connect 771 0 274 0;
#X connect 772 0 251 0;
#X connect 773 0 296 0;
#X connect 774 0 291 0;
#X connect 775 0 350 0;
#X connect 776 0 330 0;
#X connect 777 0 378 0;
#X connect 778 0 383 0;
#X connect 779 0 418 0;
#X connect 780 0 441 0;
#X connect 781 0 458 0;
#X connect 782 0 463 0;
#X connect 783 0 517 0;
#X connect 784 0 497 0;
#X connect 785 0 684 0;
#X connect 786 0 664 0;
#X connect 787 0 630 0;
#X connect 788 0 625 0;
#X connect 789 0 585 0;
#X connect 790 0 608 0;
#X connect 791 0 545 0;
#X connect 792 0 550 0;
#X connect 793 0 758 1;
#X connect 794 0 758 2;
#X connect 795 0 757 1;
#X connect 796 0 758 3;
#X connect 797 0 758 4;
#X connect 798 0 757 2;
#X connect 799 0 757 3;
#X connect 800 0 757 4;
#X connect 801 0 765 1;
#X connect 802 0 765 2;
#X connect 803 0 765 3;
#X connect 804 0 765 4;
#X connect 805 0 767 1;
#X connect 806 0 767 2;
#X connect 807 0 767 3;
#X connect 808 0 767 4;
#X connect 809 0 769 1;
#X connect 810 0 769 2;
#X connect 811 0 769 3;
#X connect 812 0 769 4;
#X connect 813 0 771 1;
#X connect 814 0 771 2;
#X connect 815 0 771 3;
#X connect 816 0 771 4;
#X connect 817 0 774 1;
#X connect 818 0 774 2;
#X connect 819 0 774 3;
#X connect 820 0 774 4;
#X connect 821 0 775 1;
#X connect 822 0 775 2;
#X connect 823 0 775 3;
#X connect 824 0 775 4;
#X connect 825 0 777 1;
#X connect 826 0 777 2;
#X connect 827 0 777 3;
#X connect 828 0 777 4;
#X connect 829 0 780 1;
#X connect 830 0 780 2;
#X connect 831 0 780 3;
#X connect 832 0 780 4;
#X connect 833 0 781 1;
#X connect 834 0 781 2;
#X connect 835 0 781 3;
#X connect 836 0 781 4;
#X connect 837 0 783 1;
#X connect 838 0 783 2;
#X connect 839 0 783 3;
#X connect 840 0 783 4;
#X connect 841 0 791 1;
#X connect 842 0 791 2;
#X connect 843 0 791 3;
#X connect 844 0 791 4;
#X connect 845 0 790 1;
#X connect 846 0 790 2;
#X connect 847 0 790 3;
#X connect 848 0 790 4;
#X connect 849 0 788 1;
#X connect 850 0 788 2;
#X connect 851 0 788 3;
#X connect 852 0 788 4;
#X connect 853 0 785 1;
#X connect 854 0 785 2;
#X connect 855 0 785 3;
#X connect 856 0 785 4;
#X connect 857 0 859 1;
#X connect 858 0 859 0;
#X connect 859 0 969 0;
#X connect 864 0 862 0;
#X connect 865 0 864 0;
#X connect 866 0 867 1;
#X connect 867 0 969 0;
#X connect 868 0 867 0;
#X connect 869 0 871 1;
#X connect 870 0 871 0;
#X connect 871 0 970 0;
#X connect 872 0 873 1;
#X connect 873 0 970 0;
#X connect 874 0 873 0;
#X connect 875 0 877 1;
#X connect 876 0 877 0;
#X connect 877 0 971 0;
#X connect 878 0 879 1;
#X connect 879 0 971 0;
#X connect 880 0 879 0;
#X connect 881 0 883 1;
#X connect 882 0 883 0;
#X connect 883 0 972 0;
#X connect 884 0 885 1;
#X connect 885 0 972 0;
#X connect 886 0 885 0;
#X connect 887 0 889 1;
#X connect 888 0 889 0;
#X connect 889 0 973 0;
#X connect 890 0 891 1;
#X connect 891 0 973 0;
#X connect 892 0 891 0;
#X connect 893 0 895 1;
#X connect 894 0 895 0;
#X connect 895 0 974 0;
#X connect 896 0 897 1;
#X connect 897 0 974 0;
#X connect 898 0 897 0;
#X connect 899 0 901 1;
#X connect 900 0 901 0;
#X connect 901 0 975 0;
#X connect 902 0 903 1;
#X connect 903 0 975 0;
#X connect 904 0 903 0;
#X connect 905 0 907 1;
#X connect 906 0 907 0;
#X connect 907 0 976 0;
#X connect 908 0 909 1;
#X connect 909 0 976 0;
#X connect 910 0 909 0;
#X connect 911 0 913 1;
#X connect 912 0 913 0;
#X connect 913 0 977 0;
#X connect 914 0 915 1;
#X connect 915 0 977 0;
#X connect 916 0 915 0;
#X connect 917 0 919 1;
#X connect 918 0 919 0;
#X connect 919 0 978 0;
#X connect 920 0 921 1;
#X connect 921 0 978 0;
#X connect 922 0 921 0;
#X connect 923 0 925 1;
#X connect 924 0 925 0;
#X connect 925 0 979 0;
#X connect 926 0 927 1;
#X connect 927 0 979 0;
#X connect 928 0 927 0;
#X connect 929 0 931 1;
#X connect 930 0 931 0;
#X connect 931 0 980 0;
#X connect 932 0 933 1;
#X connect 933 0 980 0;
#X connect 934 0 933 0;
#X connect 935 0 937 1;
#X connect 936 0 937 0;
#X connect 937 0 981 0;
#X connect 938 0 939 1;
#X connect 939 0 981 0;
#X connect 940 0 939 0;
#X connect 941 0 943 1;
#X connect 942 0 943 0;
#X connect 943 0 982 0;
#X connect 944 0 945 1;
#X connect 945 0 982 0;
#X connect 946 0 945 0;
#X connect 947 0 949 1;
#X connect 948 0 949 0;
#X connect 949 0 983 0;
#X connect 950 0 951 1;
#X connect 951 0 983 0;
#X connect 952 0 951 0;
#X connect 953 0 955 1;
#X connect 954 0 955 0;
#X connect 955 0 984 0;
#X connect 956 0 957 1;
#X connect 957 0 984 0;
#X connect 958 0 957 0;
#X connect 959 0 761 0;
#X connect 964 0 865 0;
#X connect 965 0 760 0;
#X connect 966 0 754 0;
#X connect 967 0 962 0;
#X connect 968 0 960 0;
#X connect 969 0 16 0;
#X connect 970 0 76 0;
#X connect 971 0 120 0;
#X connect 972 0 159 0;
#X connect 973 0 210 0;
#X connect 974 0 248 0;
#X connect 975 0 290 0;
#X connect 976 0 327 0;
#X connect 977 0 377 0;
#X connect 978 0 415 0;
#X connect 979 0 457 0;
#X connect 980 0 494 0;
#X connect 981 0 544 0;
#X connect 982 0 582 0;
#X connect 983 0 624 0;
#X connect 984 0 661 0;
#X connect 985 0 756 0;
#X restore 10 -1220 pd main patch;
#X text 180 -1470 dB;
#X text 180 -1440 ms;
#X text 142 -1340 dB;
#X text 180 -1500 Q;
#X text 180 -1530 Hz;
#X floatatom 260 -1530 5 0 0 0 - f2 -, f 5;
#X floatatom 260 -1500 5 0 0 0 - q2 -, f 5;
#X floatatom 260 -1440 5 0 0 0 - i2 -, f 5;
#X floatatom 260 -1470 5 0 0 0 - g2 -, f 5;
#X text 297 -1471 dB;
#X text 297 -1441 ms;
#X text 297 -1501 Q;
#X text 297 -1531 Hz;
#X floatatom 380 -1530 5 0 0 0 - f3 -, f 5;
#X floatatom 380 -1500 5 0 0 0 - q3 -, f 5;
#X floatatom 380 -1440 5 0 0 0 - i3 -, f 5;
#X floatatom 380 -1470 5 0 0 0 - g3 -, f 5;
#X text 417 -1471 dB;
#X text 417 -1441 ms;
#X text 417 -1501 Q;
#X text 417 -1531 Hz;
#X floatatom 490 -1530 5 0 0 0 - f4 -, f 5;
#X floatatom 490 -1500 5 0 0 0 - q4 -, f 5;
#X floatatom 490 -1440 5 0 0 0 - i4 -, f 5;
#X floatatom 490 -1470 5 0 0 0 - g4 -, f 5;
#X text 527 -1471 dB;
#X text 527 -1441 ms;
#X text 527 -1501 Q;
#X text 527 -1531 Hz;
#X floatatom 601 -1530 5 0 0 0 - f5 -, f 5;
#X floatatom 601 -1500 5 0 0 0 - q5 -, f 5;
#X floatatom 601 -1440 5 0 0 0 - i5 -, f 5;
#X floatatom 601 -1470 5 0 0 0 - g5 -, f 5;
#X text 638 -1471 dB;
#X text 638 -1441 ms;
#X text 638 -1501 Q;
#X text 638 -1531 Hz;
#X floatatom 710 -1530 5 0 0 0 - f6 -, f 5;
#X floatatom 710 -1500 5 0 0 0 - q6 -, f 5;
#X floatatom 710 -1440 5 0 0 0 - i6 -, f 5;
#X floatatom 710 -1470 5 0 0 0 - g6 -, f 5;
#X text 747 -1471 dB;
#X text 747 -1441 ms;
#X text 747 -1501 Q;
#X text 747 -1531 Hz;
#X floatatom 820 -1530 5 0 0 0 - f7 -, f 5;
#X floatatom 820 -1500 5 0 0 0 - q7 -, f 5;
#X floatatom 820 -1440 5 0 0 0 - i7 -, f 5;
#X floatatom 820 -1470 5 0 0 0 - g7 -, f 5;
#X text 857 -1471 dB;
#X text 857 -1441 ms;
#X text 857 -1501 Q;
#X text 857 -1531 Hz;
#X floatatom 930 -1530 5 0 0 0 - f8 -, f 5;
#X floatatom 930 -1500 5 0 0 0 - q8 -, f 5;
#X floatatom 930 -1440 5 0 0 0 - i8 -, f 5;
#X floatatom 930 -1470 5 0 0 0 - g8 -, f 5;
#X text 967 -1471 dB;
#X text 967 -1441 ms;
#X text 967 -1501 Q;
#X text 967 -1531 Hz;
#X floatatom 930 -1340 5 0 0 0 - f16 -, f 5;
#X floatatom 930 -1310 5 0 0 0 - q16 -, f 5;
#X floatatom 930 -1250 5 0 0 0 - i16 -, f 5;
#X floatatom 930 -1280 5 0 0 0 - g16 -, f 5;
#X text 967 -1281 dB;
#X text 967 -1251 ms;
#X text 967 -1311 Q;
#X text 967 -1341 Hz;
#X floatatom 820 -1340 5 0 0 0 - f15 -, f 5;
#X floatatom 820 -1310 5 0 0 0 - q15 -, f 5;
#X floatatom 820 -1250 5 0 0 0 - i15 -, f 5;
#X floatatom 820 -1280 5 0 0 0 - g15 -, f 5;
#X text 857 -1281 dB;
#X text 857 -1251 ms;
#X text 857 -1311 Q;
#X text 857 -1341 Hz;
#X floatatom 710 -1340 5 0 0 0 - f14 -, f 5;
#X floatatom 710 -1310 5 0 0 0 - q14 -, f 5;
#X floatatom 710 -1250 5 0 0 0 - i14 -, f 5;
#X floatatom 710 -1280 5 0 0 0 - g14 -, f 5;
#X text 747 -1281 dB;
#X text 747 -1251 ms;
#X text 747 -1311 Q;
#X text 747 -1341 Hz;
#X floatatom 600 -1340 5 0 0 0 - f13 -, f 5;
#X floatatom 600 -1310 5 0 0 0 - q13 -, f 5;
#X floatatom 600 -1250 5 0 0 0 - i13 -, f 5;
#X floatatom 600 -1280 5 0 0 0 - g13 -, f 5;
#X text 637 -1281 dB;
#X text 637 -1251 ms;
#X text 637 -1311 Q;
#X text 637 -1341 Hz;
#X floatatom 490 -1340 5 0 0 0 - f12 -, f 5;
#X floatatom 490 -1310 5 0 0 0 - q12 -, f 5;
#X floatatom 490 -1250 5 0 0 0 - i12 -, f 5;
#X floatatom 490 -1280 5 0 0 0 - g12 -, f 5;
#X text 527 -1281 dB;
#X text 527 -1251 ms;
#X text 527 -1311 Q;
#X text 527 -1341 Hz;
#X floatatom 377 -1340 5 0 0 0 - f11 -, f 5;
#X floatatom 377 -1310 5 0 0 0 - q11 -, f 5;
#X floatatom 377 -1250 5 0 0 0 - i11 -, f 5;
#X floatatom 377 -1280 5 0 0 0 - g11 -, f 5;
#X text 414 -1281 dB;
#X text 414 -1251 ms;
#X text 414 -1311 Q;
#X text 414 -1341 Hz;
#X floatatom 259 -1340 5 0 0 0 - f10 -, f 5;
#X floatatom 259 -1310 5 0 0 0 - q10 -, f 5;
#X floatatom 259 -1250 5 0 0 0 - i10 -, f 5;
#X floatatom 259 -1280 5 0 0 0 - g10 -, f 5;
#X text 296 -1281 dB;
#X text 296 -1251 ms;
#X text 296 -1311 Q;
#X text 296 -1341 Hz;
#X floatatom 145 -1339 5 0 0 0 - f9 -, f 5;
#X floatatom 145 -1309 5 0 0 0 - q9 -, f 5;
#X floatatom 145 -1249 5 0 0 0 - i9 -, f 5;
#X floatatom 145 -1279 5 0 0 0 - g9 -, f 5;
#X text 182 -1280 dB;
#X text 182 -1250 ms;
#X text 182 -1310 Q;
#X text 182 -1340 Hz;
#X obj 10 -1250 tgl 25 0 empty noisedemo empty 17 7 0 10 #fffb00 #000000
#000000 0 127;
#X text 10 -1284 Noise input;
#X obj 10 -1320 tgl 25 0 adctog adctog empty 17 7 0 10 #fffb00 #000000
#000000 0 127;
#X text 10 -1340 ADC input;
#X obj 10 -1380 tgl 25 0 noisebypass noisebypass empty 17 7 0 10 #fffb00
#000000 #000000 0 127;
#X text 10 -1400 Noise bypass;
#X obj 10 -1540 tgl 25 0 empty dsp empty 17 7 0 10 #008f00 #ffffff
#000000 0 127;
#X text 10 -1560 DSP on/off;
#X obj 10 -1440 tgl 25 0 empty record empty 17 7 0 10 #ff2600 #ffffff
#000000 0 127;
#X text 10 -1460 ADC Record;
#X text 10 -1270 Demo use only;
#X obj 170 -1570 tgl 15 0 empty eq1 empty 17 7 0 10 #ff9300 #000000
#000000 0 127;
#X obj 170 -1380 tgl 15 0 empty eq3 empty 17 7 0 10 #ff9300 #000000
#000000 0 127;
#X obj 620 -1570 tgl 15 0 empty eq2 empty 17 7 0 10 #ff9300 #000000
#000000 0 127;
#X obj 620 -1380 tgl 15 0 empty eq4 empty 17 7 0 10 #ff9300 #000000
#000000 0 127;
#X obj 100 -1410 tgl 15 0 empty band1 empty 17 7 0 10 #8efa00 #000000
#000000 0 127;
#X obj 210 -1410 tgl 15 0 empty band2 empty 17 7 0 10 #8efa00 #000000
#000000 0 127;
#X obj 330 -1410 tgl 15 0 empty band3 empty 17 7 0 10 #8efa00 #000000
#000000 0 127;
#X obj 440 -1410 tgl 15 0 empty band4 empty 17 7 0 10 #8efa00 #000000
#000000 0 127;
#X obj 550 -1410 tgl 15 0 empty band5 empty 17 7 0 10 #8efa00 #000000
#000000 0 127;
#X obj 660 -1410 tgl 15 0 empty band6 empty 17 7 0 10 #8efa00 #00f900
#000000 0 127;
#X obj 770 -1410 tgl 15 0 empty band7 empty 17 7 0 10 #8efa00 #000000
#000000 0 127;
#X obj 880 -1410 tgl 15 0 empty band8 empty 17 7 0 10 #8efa00 #000000
#000000 0 127;
#X obj 100 -1220 tgl 15 0 empty band9 empty 17 7 0 10 #8efa00 #000000
#000000 0 127;
#X obj 210 -1220 tgl 15 0 empty band10 empty 17 7 0 10 #8efa00 #000000
#000000 0 127;
#X obj 330 -1220 tgl 15 0 empty band11 empty 17 7 0 10 #8efa00 #000000
#000000 0 1;
#X obj 440 -1220 tgl 15 0 empty band12 empty 17 7 0 10 #8efa00 #000000
#000000 0 127;
#X obj 550 -1220 tgl 15 0 empty band13 empty 17 7 0 10 #8efa00 #000000
#000000 0 127;
#X obj 660 -1220 tgl 15 0 empty band14 empty 17 7 0 10 #8efa00 #000000
#000000 0 127;
#X obj 770 -1220 tgl 15 0 empty band15 empty 17 7 0 10 #8efa00 #000000
#000000 0 1;
#X obj 880 -1220 tgl 15 0 empty band16 empty 17 7 0 10 #8efa00 #000000
#000000 0 127;
#X connect 4 1 2 0;
#X connect 8 1 6 0;
#X connect 11 1 9 0;
#X connect 14 1 12 0;
#X connect 15 0 8 0;
#X connect 16 0 4 0;
#X connect 17 0 11 0;
#X connect 18 0 14 0;
#X connect 21 1 19 0;
#X connect 24 1 22 0;
#X connect 27 1 25 0;
#X connect 30 1 28 0;
#X connect 31 0 5 0;
#X connect 32 0 5 0;
#X connect 33 0 5 0;
#X connect 34 0 5 0;
#X connect 35 0 5 0;
#X connect 36 0 5 0;
#X connect 37 0 5 0;
#X connect 38 0 5 0;
#X connect 39 0 5 0;
#X connect 40 0 5 0;
#X connect 41 0 5 0;
#X connect 42 0 5 0;
#X connect 43 0 5 0;
#X connect 44 0 5 0;
#X connect 45 0 5 0;
#X connect 46 0 5 0;
#X connect 47 0 5 0;
#X connect 50 1 48 0;
#X connect 53 1 51 0;
#X connect 56 1 54 0;
#X connect 59 1 57 0;
#X connect 62 1 60 0;
#X connect 65 1 63 0;
#X connect 68 1 66 0;
#X connect 71 1 69 0;
#X connect 72 0 21 0;
#X connect 73 0 24 0;
#X connect 74 0 27 0;
#X connect 75 0 30 0;
#X connect 76 0 50 0;
#X connect 77 0 53 0;
#X connect 78 0 56 0;
#X connect 79 0 59 0;
#X connect 80 0 62 0;
#X connect 81 0 65 0;
#X connect 82 0 68 0;
#X connect 83 0 71 0;
#X coords 0 0 1 1 402 40 0;
